{"glyphs":{"0":{"ha":465,"x_min":0,"x_max":0,"o":"m 133 58 b 307 414 194 63 271 253 b 326 553 313 438 326 500 b 292 629 326 592 318 625 l 289 629 b 93 138 214 629 93 293 b 131 58 93 89 104 58 l 133 58 m 114 0 b -21 168 25 6 -15 78 l -21 183 b 164 647 -21 322 65 568 b 285 685 200 676 233 685 b 429 576 357 685 413 647 b 436 506 435 556 436 532 b 244 29 436 349 349 108 b 136 -1 215 6 174 -1 "},"1":{"ha":304,"x_min":0,"x_max":0,"o":"m 118 0 b 49 51 72 0 53 8 b 175 507 49 139 146 422 b 51 439 147 481 94 439 b -6 490 19 440 1 461 b 4 503 -6 496 -1 501 b 238 672 72 522 197 624 b 269 685 244 682 256 685 b 340 644 300 685 340 665 l 339 638 b 146 14 324 601 146 119 b 132 0 146 7 140 0 "},"2":{"ha":478,"x_min":0,"x_max":0,"o":"m 374 0 b 365 3 371 0 368 1 b 239 28 338 21 292 28 b -21 0 147 28 39 8 l -28 0 b -81 60 -61 0 -81 32 b -71 89 -81 71 -78 82 b -35 101 -67 96 -46 100 l -35 108 b -12 178 -35 132 -28 158 b 389 493 42 246 278 353 b 421 579 407 518 421 551 b 414 608 421 590 419 600 b 360 635 403 626 382 635 b 194 507 301 635 221 582 b 186 469 188 489 186 478 b 189 451 186 464 188 458 l 189 447 b 178 436 189 442 185 436 l 176 436 b 93 499 144 440 93 433 l 93 501 b 185 647 93 551 129 607 b 317 685 224 676 269 685 l 351 683 b 493 533 444 678 493 618 l 493 517 b 471 432 492 483 482 453 b 78 122 424 346 229 219 b 229 135 122 129 178 135 b 344 121 272 135 313 131 b 386 17 389 106 381 46 l 386 14 b 374 0 386 6 381 0 "},"3":{"ha":483,"x_min":0,"x_max":0,"o":"m 171 0 b -24 99 100 0 1 24 b -26 115 -26 104 -26 110 b 1 154 -26 138 -11 154 b 13 149 6 154 10 153 b 131 93 39 107 85 96 l 144 93 b 322 263 269 93 322 201 b 300 301 322 285 315 301 l 293 300 b 235 293 278 294 257 293 b 176 297 214 293 193 294 b 149 349 161 300 149 325 b 175 382 149 367 157 382 l 183 382 b 421 551 286 382 396 454 b 422 567 422 556 422 561 b 378 642 422 596 408 633 l 358 644 b 197 494 293 644 197 574 l 197 490 b 213 458 199 476 204 460 b 219 449 218 457 219 453 b 210 436 219 443 217 438 b 181 432 200 433 190 432 b 106 506 139 432 107 458 l 106 508 b 268 678 106 593 189 658 b 338 685 286 682 313 685 b 401 676 361 685 385 682 b 496 557 450 658 485 618 l 499 532 b 356 328 499 449 422 367 b 422 203 397 321 422 258 b 415 156 422 186 419 169 b 171 0 378 47 276 0 "},"4":{"ha":456,"x_min":0,"x_max":0,"o":"m 293 0 b 218 36 260 0 225 6 l 217 49 b 282 315 217 99 256 229 l 267 317 b 60 240 201 317 92 265 b 43 235 54 236 49 235 b 0 294 21 235 0 268 b 14 322 0 306 4 317 b 197 654 46 357 197 594 l 196 661 b 194 671 194 664 194 668 b 207 685 194 679 199 685 b 217 683 210 685 213 685 b 256 636 240 674 249 658 b 258 615 257 629 258 622 b 151 353 258 542 183 403 b 247 368 181 364 217 368 b 297 363 267 368 285 367 b 419 669 347 496 401 626 b 450 685 424 681 436 685 b 517 644 479 685 517 665 l 515 638 b 319 14 500 601 321 119 b 307 0 319 7 314 0 "},"5":{"ha":440,"x_min":0,"x_max":0,"o":"m 75 0 b -44 83 38 4 -31 40 l -46 93 b -26 121 -46 108 -36 121 b -15 114 -22 121 -18 119 b 54 67 -1 90 26 74 b 81 64 63 65 72 64 b 288 292 186 64 267 204 b 289 308 289 297 289 303 b 226 350 289 340 261 350 b 104 328 182 350 126 333 l 94 326 b 44 389 65 326 44 365 b 47 403 44 394 46 399 b 147 593 64 433 147 542 l 146 600 b 128 618 144 601 135 606 b 124 638 125 624 124 631 b 153 688 124 660 135 688 l 160 686 b 331 653 224 664 283 653 b 419 681 374 653 406 661 b 431 686 422 685 426 686 b 440 683 433 686 438 686 b 460 624 450 676 460 650 b 443 575 460 606 456 588 b 351 551 425 557 390 551 b 228 567 308 551 260 560 l 231 554 b 160 390 231 513 183 431 b 250 399 183 394 219 399 l 281 396 b 389 271 331 385 389 333 b 386 246 389 263 388 254 b 103 -1 353 111 243 -1 "},"6":{"ha":424,"x_min":0,"x_max":0,"o":"m 138 0 b 64 15 111 0 86 4 b -11 164 8 42 -11 103 b 8 279 -11 204 -3 246 b 338 683 61 436 217 660 l 361 685 b 438 653 388 685 421 678 b 439 646 439 650 439 649 b 425 631 439 638 432 631 b 414 636 421 631 417 632 b 406 639 411 639 408 639 b 347 603 392 639 369 624 b 181 390 286 547 222 461 b 274 418 211 407 240 415 l 279 418 b 403 307 336 418 396 364 l 404 286 b 217 13 404 176 322 43 b 138 0 192 4 164 0 m 144 53 b 294 313 217 58 294 219 b 251 376 294 350 282 376 l 250 376 b 143 317 210 375 163 350 b 89 119 128 286 89 188 b 139 53 89 81 101 53 l 144 53 "},"7":{"ha":464,"x_min":0,"x_max":0,"o":"m 68 -3 b -14 65 39 -3 -14 35 l -12 72 b 192 431 3 133 86 290 b 303 560 226 476 264 521 l 238 557 b 133 564 201 557 167 560 b 54 671 93 569 58 635 l 54 672 b 68 686 54 681 61 686 b 76 683 71 686 74 686 b 208 658 97 667 149 660 l 239 658 b 457 675 322 658 415 668 l 460 675 b 474 667 467 675 471 672 b 504 604 481 643 499 624 l 506 600 b 496 586 506 594 501 589 b 479 583 492 585 485 583 b 249 333 435 564 336 457 b 88 11 179 235 113 131 b 69 -3 86 1 79 -3 "},"8":{"ha":404,"x_min":0,"x_max":0,"o":"m 100 0 b -50 143 -11 4 -50 71 b -42 204 -50 164 -47 185 b 124 374 -18 294 42 374 l 126 374 b 60 486 76 390 60 438 b 71 556 60 511 64 536 b 257 685 103 649 168 685 l 276 685 b 404 560 363 681 404 626 l 403 543 b 265 360 394 461 354 389 b 344 235 306 344 344 303 b 343 208 344 226 344 217 b 114 0 326 90 260 0 m 115 44 b 236 197 160 44 215 93 b 240 239 239 210 240 225 b 189 326 240 276 228 314 l 181 326 b 64 208 128 326 90 285 b 50 132 54 179 50 154 b 115 44 50 75 79 44 m 213 393 b 304 514 257 401 290 457 b 313 569 310 535 313 554 b 261 643 313 618 290 643 b 160 522 225 643 179 603 b 151 467 156 506 151 485 b 213 393 151 429 165 396 "},"9":{"ha":429,"x_min":0,"x_max":0,"o":"m 60 0 b -21 35 31 0 -4 8 b -24 43 -22 38 -24 40 b -10 57 -24 50 -17 57 b 1 51 -6 57 -1 56 b 11 47 4 49 7 47 b 128 128 42 47 114 114 b 250 294 172 172 215 231 b 149 269 222 278 189 269 l 139 269 b 25 408 56 275 25 338 b 69 565 25 463 43 522 b 203 678 104 621 153 664 b 265 689 228 685 246 689 b 303 685 276 689 289 688 b 419 519 392 671 419 600 b 372 306 419 444 394 361 b 63 0 335 217 185 0 m 188 311 b 279 358 224 313 254 325 b 322 547 306 422 322 486 l 319 585 b 268 635 315 615 290 635 l 265 635 b 138 483 222 631 167 558 b 117 388 125 450 117 417 b 186 311 117 343 136 311 l 188 311 "},"\u0000":{"ha":0,"x_min":0,"x_max":0,"o":""},"\u001d":{"ha":0,"x_min":0,"x_max":0,"o":""}," ":{"ha":319,"x_min":0,"x_max":0,"o":""}," ":{"ha":319,"x_min":0,"x_max":0,"o":""},"":{"ha":4897,"x_min":0,"x_max":0,"o":"m 296 -68 b 56 192 168 -68 56 13 b 514 797 56 426 251 797 b 697 626 644 797 697 722 b 535 285 697 499 604 333 b 490 274 522 276 507 274 b 381 328 444 274 390 300 b 393 346 381 339 383 346 b 621 675 471 353 621 574 b 572 724 621 711 600 724 b 542 719 561 724 550 721 b 196 126 365 681 196 329 b 201 68 196 106 197 86 b 310 -3 213 18 253 -3 b 765 444 544 -3 694 272 b 747 483 753 453 747 467 b 761 542 747 503 756 526 b 794 556 765 551 779 556 b 828 535 817 556 828 550 l 807 475 b 904 488 843 476 872 488 b 981 415 947 488 975 458 b 889 65 981 365 889 176 b 906 25 892 38 892 25 b 957 68 924 25 950 57 b 1071 293 983 107 1018 175 b 1082 300 1074 299 1078 300 b 1097 288 1090 300 1097 294 b 1096 281 1097 286 1097 283 b 907 0 992 49 958 0 l 892 0 b 794 32 860 0 810 1 b 783 88 788 46 783 65 b 878 439 783 190 853 364 b 811 429 850 436 832 429 b 790 432 806 429 797 429 b 300 -68 707 210 578 -68 m 1203 -1 b 1042 158 1085 3 1042 72 b 1281 488 1042 293 1136 488 b 1376 404 1338 485 1376 458 b 1199 185 1374 306 1272 185 b 1160 199 1185 185 1171 189 b 1154 146 1157 182 1154 164 b 1231 29 1154 78 1172 35 b 1465 292 1276 29 1353 60 b 1476 300 1468 297 1472 300 b 1492 286 1483 300 1492 294 l 1490 281 b 1218 -1 1365 19 1274 -1 m 1192 233 b 1329 400 1251 233 1329 356 b 1311 418 1329 415 1319 418 b 1222 340 1279 418 1236 360 b 1172 239 1201 308 1183 272 b 1192 233 1178 235 1185 233 m 1756 -1 b 1669 32 1721 -1 1685 3 b 1658 90 1661 46 1658 67 l 1661 135 b 1529 25 1626 74 1585 25 b 1435 153 1463 26 1435 82 b 1672 486 1435 293 1535 486 b 1754 447 1708 486 1738 474 b 1800 488 1765 474 1763 488 b 1875 446 1832 488 1875 468 l 1874 440 b 1763 58 1856 396 1765 157 b 1771 26 1763 39 1764 26 b 1944 292 1817 28 1904 204 b 1957 300 1947 299 1951 300 b 1971 288 1965 299 1971 299 l 1969 281 b 1772 -1 1924 182 1838 1 m 1567 103 b 1696 283 1608 104 1682 249 b 1715 369 1703 301 1715 339 b 1686 410 1715 397 1708 406 b 1546 139 1625 410 1546 221 b 1567 103 1546 117 1553 103 m 2514 -4 b 2392 78 2443 -3 2392 -7 b 2475 414 2392 176 2475 396 b 2469 424 2475 421 2472 424 b 2456 415 2465 424 2460 419 b 2271 156 2378 338 2296 203 b 2240 11 2251 82 2240 35 b 2224 -4 2240 0 2232 -3 b 2135 67 2163 -4 2135 8 b 2222 410 2143 175 2204 344 l 2224 419 b 2221 425 2224 422 2224 425 b 2140 343 2204 425 2146 351 b 2017 157 2086 272 2038 192 b 1988 10 2000 97 1989 42 b 1972 -4 1988 0 1981 -3 b 1883 38 1928 -4 1883 3 b 1999 469 1883 119 1976 407 b 2031 485 2001 481 2015 485 b 2111 443 2064 485 2111 465 l 2110 438 b 2050 261 2088 379 2068 321 b 2276 486 2097 339 2194 486 b 2340 426 2311 486 2340 464 b 2299 253 2340 401 2318 328 b 2479 469 2339 319 2408 421 b 2529 486 2494 481 2513 486 b 2594 426 2564 486 2594 464 l 2593 410 b 2507 50 2574 314 2507 131 b 2515 24 2507 33 2508 24 b 2522 10 2519 24 2522 14 b 2514 -4 2522 3 2521 -4 m 3153 -69 b 2913 190 3026 -69 2913 14 b 3372 796 2913 428 3108 793 b 3554 625 3496 796 3554 725 b 3392 285 3554 506 3467 336 b 3346 272 3379 276 3364 272 b 3238 331 3300 272 3242 300 b 3251 344 3238 339 3243 344 b 3478 675 3328 351 3478 574 b 3431 722 3478 708 3458 722 b 3400 718 3419 722 3410 719 b 3054 124 3222 681 3054 326 b 3163 -4 3054 42 3085 -3 b 3560 293 3318 -4 3481 175 b 3572 300 3563 297 3568 300 b 3586 286 3581 299 3586 296 l 3585 281 b 3156 -69 3513 106 3363 -69 m 3851 -1 b 3767 32 3817 -1 3782 3 b 3756 90 3758 46 3756 67 b 3758 135 3756 104 3757 118 b 3625 25 3724 74 3681 25 b 3531 153 3558 26 3531 82 b 3769 486 3531 293 3631 486 b 3850 447 3806 486 3833 474 b 3896 488 3861 474 3858 488 b 3971 446 3928 488 3971 468 l 3969 440 b 3858 58 3951 396 3861 157 b 3867 26 3858 39 3860 26 b 4040 292 3913 28 4000 204 b 4053 300 4043 299 4047 300 b 4067 288 4061 299 4067 299 l 4065 281 b 3868 -1 4019 182 3933 1 m 3663 103 b 3793 283 3704 104 3779 249 b 3813 369 3800 301 3813 339 b 3783 410 3813 397 3804 406 b 3642 139 3721 410 3642 221 b 3663 103 3642 117 3649 103 m 4351 -1 b 4257 32 4326 -1 4271 6 b 4203 249 4224 89 4240 249 b 4185 242 4197 249 4192 247 b 4121 163 4174 231 4125 169 b 4088 13 4101 97 4089 42 b 4068 -1 4088 0 4079 -1 b 3982 50 4015 -1 3986 4 b 4169 665 3982 158 4133 581 b 4203 681 4174 676 4186 681 b 4285 639 4238 681 4285 661 l 4283 633 b 4157 276 4268 594 4206 431 b 4363 488 4199 342 4303 476 l 4378 489 b 4461 456 4408 489 4461 475 b 4449 442 4461 449 4457 442 l 4439 443 b 4239 297 4401 443 4272 329 l 4258 299 b 4296 293 4272 299 4286 297 b 4360 28 4346 268 4325 32 b 4538 292 4396 35 4451 104 b 4547 300 4540 297 4544 300 b 4563 286 4556 300 4563 293 l 4561 281 b 4351 -1 4474 83 4413 -1 m 4665 -4 b 4506 157 4547 0 4506 71 b 4746 486 4506 286 4600 486 b 4842 401 4803 483 4842 456 b 4663 182 4839 303 4738 182 b 4624 196 4649 182 4635 186 b 4618 142 4619 179 4618 161 b 4694 26 4618 75 4639 31 b 4808 96 4740 26 4779 67 b 4821 101 4813 100 4817 101 b 4833 89 4831 101 4831 97 b 4829 79 4833 85 4832 81 b 4674 -4 4789 25 4739 -4 m 4656 232 b 4793 399 4715 232 4793 354 b 4776 417 4793 413 4786 417 b 4685 338 4744 417 4699 357 b 4635 238 4664 306 4646 269 b 4656 232 4642 233 4647 232 "},"!":{"ha":372,"x_min":0,"x_max":0,"o":""},"\"":{"ha":296,"x_min":0,"x_max":0,"o":""},"#":{"ha":626,"x_min":0,"x_max":0,"o":""},"$":{"ha":413,"x_min":0,"x_max":0,"o":""},"%":{"ha":589,"x_min":0,"x_max":0,"o":""},"&":{"ha":779,"x_min":0,"x_max":0,"o":""},"'":{"ha":147,"x_min":0,"x_max":0,"o":""},"(":{"ha":313,"x_min":0,"x_max":0,"o":""},")":{"ha":322,"x_min":0,"x_max":0,"o":""},"*":{"ha":208,"x_min":0,"x_max":0,"o":""},"+":{"ha":353,"x_min":0,"x_max":0,"o":""},",":{"ha":190,"x_min":0,"x_max":0,"o":""},"-":{"ha":418,"x_min":0,"x_max":0,"o":""},"­":{"ha":418,"x_min":0,"x_max":0,"o":""},".":{"ha":172,"x_min":0,"x_max":0,"o":""},"/":{"ha":418,"x_min":0,"x_max":0,"o":""},":":{"ha":244,"x_min":0,"x_max":0,"o":""},";":{"ha":224,"x_min":0,"x_max":0,"o":""},";":{"ha":224,"x_min":0,"x_max":0,"o":""},"<":{"ha":342,"x_min":0,"x_max":0,"o":""},"=":{"ha":335,"x_min":0,"x_max":0,"o":""},">":{"ha":347,"x_min":0,"x_max":0,"o":""},"?":{"ha":389,"x_min":0,"x_max":0,"o":""},"@":{"ha":733,"x_min":0,"x_max":0,"o":""},"A":{"ha":843,"x_min":0,"x_max":0,"o":"m 639 -71 b 539 25 561 -71 540 -26 l 539 31 b 565 213 539 79 554 169 l 393 214 b 124 -43 292 90 200 0 b 104 -49 117 -47 111 -49 b 8 10 63 -49 18 6 b 0 22 3 13 0 18 b 15 38 0 31 6 38 l 19 38 b 76 54 38 38 60 46 b 276 214 135 82 204 140 l 203 213 b 182 236 188 213 182 224 l 182 243 b 228 299 186 267 210 299 b 357 300 268 299 311 299 b 665 679 471 426 583 574 l 749 786 b 769 799 753 792 763 796 l 782 800 b 856 753 817 800 856 774 l 854 747 b 715 299 813 663 757 474 l 775 297 b 792 286 783 297 789 292 b 794 274 793 282 794 278 b 742 210 794 247 771 210 l 740 210 b 696 211 726 211 713 211 b 657 -29 674 108 657 18 l 660 -57 b 646 -71 660 -64 654 -71 m 585 299 b 679 607 611 400 646 513 b 460 300 597 485 525 383 l 585 299 "},"B":{"ha":785,"x_min":0,"x_max":0,"o":"m 331 -68 b 117 39 274 -67 175 -33 b 113 53 114 43 113 47 b 125 74 113 63 118 74 b 131 71 126 74 129 74 b 313 4 185 28 249 4 b 556 174 407 4 500 56 b 579 253 572 207 579 233 b 447 349 579 326 486 318 b 385 92 424 274 385 146 b 372 78 385 85 379 79 l 361 78 b 281 114 326 78 288 83 b 279 133 279 119 279 126 b 419 617 279 238 386 540 b 453 632 424 628 438 632 b 536 589 488 632 536 611 l 535 583 l 465 403 l 479 401 b 625 497 526 401 583 443 b 685 642 657 538 685 594 b 585 733 685 688 658 726 l 538 736 b 86 475 364 736 122 656 b 74 463 85 467 81 463 l 67 464 b 0 597 33 472 0 542 b 19 651 0 619 6 640 b 464 800 146 761 303 800 l 481 800 b 785 608 607 800 785 761 l 785 607 b 588 342 783 490 696 381 b 685 211 656 315 685 267 b 656 104 685 178 674 142 b 342 -68 600 -3 460 -68 "},"C":{"ha":651,"x_min":0,"x_max":0,"o":"m 242 -68 b 0 193 114 -68 0 15 b 461 800 0 431 197 797 b 644 629 586 800 644 729 b 481 288 644 510 557 339 b 435 275 468 279 453 275 b 326 333 389 275 331 303 b 340 347 326 342 332 347 b 568 679 417 354 568 578 b 519 726 568 713 549 726 b 489 722 508 726 499 724 b 142 125 311 685 142 329 b 251 -3 142 43 172 -1 b 650 296 407 -3 571 178 b 663 303 653 300 658 303 b 676 289 671 301 676 299 l 675 283 b 244 -68 603 107 451 -68 "},"D":{"ha":876,"x_min":0,"x_max":0,"o":"m 388 -68 b 143 39 308 -68 193 -25 b 138 54 139 44 138 50 b 149 74 138 65 143 74 l 151 74 b 257 33 186 58 226 40 l 257 43 b 438 682 257 156 396 586 b 472 697 442 693 456 697 b 554 654 507 697 554 676 l 553 649 b 357 28 524 574 357 122 l 357 19 b 722 539 574 21 722 331 b 622 721 722 633 692 707 b 529 729 593 726 561 729 b 286 678 447 729 361 711 b 86 475 183 632 104 560 b 72 463 85 467 79 463 b 61 465 68 463 65 463 b 0 597 29 479 0 546 b 18 651 0 619 6 640 b 464 800 146 761 303 800 l 481 800 b 833 540 654 799 810 726 b 838 478 836 519 838 499 b 388 -68 838 225 654 -68 "},"E":{"ha":676,"x_min":0,"x_max":0,"o":"m 203 -68 b 0 119 79 -68 0 17 b 42 249 0 161 14 206 b 240 408 89 324 156 379 b 136 536 167 429 136 479 b 274 753 136 614 194 707 b 444 801 325 783 388 801 b 608 722 513 801 574 776 b 635 625 626 693 635 660 b 497 424 635 538 582 446 l 481 421 b 408 515 436 421 408 472 b 422 529 408 522 415 529 l 433 529 b 544 668 476 529 544 618 b 539 689 544 676 543 683 b 492 711 526 704 510 711 b 335 631 436 711 363 660 b 265 501 303 597 265 547 b 288 449 265 482 272 464 b 349 401 307 431 332 421 b 371 346 360 389 368 372 b 360 331 371 339 367 332 b 93 107 265 311 104 210 l 92 89 b 163 8 92 11 156 8 l 172 8 b 481 293 288 8 481 178 l 481 299 b 494 313 481 306 486 313 l 500 311 b 590 224 553 293 590 268 b 575 167 590 207 586 189 b 203 -68 507 25 357 -68 "},"F":{"ha":588,"x_min":0,"x_max":0,"o":"m 229 -68 b 153 -32 197 -68 160 -62 l 151 -18 b 219 276 151 40 193 188 l 189 276 b 108 285 154 276 126 278 b 50 358 76 296 50 324 b 53 379 50 365 50 372 b 65 389 54 385 60 389 b 76 383 69 389 74 386 b 151 367 88 371 115 367 b 250 374 179 367 214 369 b 343 639 289 493 326 603 b 364 653 346 647 357 651 b 117 617 290 640 196 617 b 54 622 94 617 74 618 b 0 693 10 632 0 658 b 6 758 0 713 4 735 b 18 771 6 767 13 771 b 29 765 22 771 26 769 b 135 740 43 747 82 740 b 640 796 285 740 549 796 b 786 683 733 796 786 744 b 750 599 786 656 775 626 b 739 594 747 596 743 594 b 725 607 732 594 725 600 l 726 613 b 733 643 731 625 733 635 b 706 681 733 663 722 674 b 646 688 690 686 671 688 b 381 656 569 688 458 667 b 460 613 413 656 460 633 l 458 607 b 383 394 449 581 418 496 l 460 406 b 511 325 504 406 506 363 l 513 319 b 501 307 513 314 508 308 b 347 286 479 301 415 292 b 257 -54 315 190 257 3 b 243 -68 257 -61 251 -68 "},"G":{"ha":757,"x_min":0,"x_max":0,"o":"m 469 -151 b 392 -114 444 -151 404 -135 b 389 -96 390 -110 389 -104 b 413 29 389 -68 399 -17 b 238 -68 354 -31 279 -65 l 219 -69 b 13 85 119 -69 33 6 b 0 185 4 117 0 150 b 483 800 0 453 226 800 l 485 800 b 618 768 540 800 585 788 b 685 649 663 740 685 694 b 649 551 685 614 672 581 b 589 518 632 531 610 518 b 528 557 568 518 547 529 b 525 565 526 560 525 563 b 528 574 525 568 526 571 b 569 681 550 606 569 649 b 518 726 569 707 556 726 b 485 722 508 726 497 725 b 138 128 306 683 138 332 b 143 69 138 107 139 88 b 229 -7 153 26 185 -7 l 239 -7 b 465 215 368 8 453 168 b 386 225 431 215 401 219 b 336 300 357 238 336 267 b 340 324 336 307 338 315 b 353 333 342 329 347 333 b 364 326 357 333 361 331 b 443 306 374 311 404 306 b 649 329 514 306 611 324 l 654 329 b 690 283 681 329 690 307 b 672 231 690 258 681 232 b 589 219 656 225 640 222 b 489 -140 558 142 500 -49 b 469 -151 488 -147 481 -151 "},"H":{"ha":735,"x_min":0,"x_max":0,"o":"m 483 -68 b 406 -32 450 -68 413 -62 l 404 -21 b 468 249 404 21 432 128 l 286 250 b 206 -54 253 143 206 -10 b 192 -68 206 -61 200 -68 l 178 -68 b 101 -32 146 -68 108 -62 l 100 -21 b 164 250 100 22 129 133 l 106 249 b 85 271 90 249 85 258 b 131 335 85 296 110 335 l 190 335 b 335 743 243 507 314 685 l 326 744 b 117 429 263 744 117 482 b 121 419 117 424 118 421 b 132 407 128 418 132 413 b 122 393 132 401 129 396 b 61 382 101 386 81 382 b 0 438 26 382 0 397 b 6 472 0 447 1 458 b 292 800 33 576 174 790 l 318 801 b 454 749 369 801 454 790 l 453 739 b 315 335 442 693 329 407 l 494 335 b 647 783 554 529 628 736 b 683 800 651 794 665 800 b 765 757 718 800 765 781 l 764 751 b 618 335 750 717 681 524 b 674 333 639 333 658 333 l 676 333 b 696 310 690 333 696 324 b 643 246 696 283 674 246 l 642 246 b 590 247 626 247 610 247 b 510 -54 553 132 510 -12 b 497 -68 510 -61 504 -68 "},"I":{"ha":378,"x_min":0,"x_max":0,"o":"m 178 -68 b 100 -32 144 -68 107 -62 l 99 -19 b 160 242 99 22 125 125 b 329 746 218 438 301 678 l 321 747 b 118 450 260 747 129 503 l 117 431 b 119 419 117 424 117 421 b 132 406 126 418 132 411 b 122 393 132 400 129 396 b 60 381 104 388 82 381 b 24 389 46 381 33 383 b 0 438 6 400 0 418 b 4 472 0 449 1 461 b 290 800 32 576 172 790 l 315 801 b 453 736 369 801 453 788 b 446 710 453 728 450 719 b 271 203 428 665 336 411 b 204 -54 233 86 206 -15 b 192 -68 204 -61 199 -68 "},"J":{"ha":464,"x_min":0,"x_max":0,"o":"m 131 -68 b 83 -58 117 -68 99 -65 b 22 18 51 -46 28 -21 l 22 26 b 119 251 22 74 61 164 b 303 433 169 322 233 393 b 344 672 317 485 344 596 b 336 729 344 696 342 715 b 313 744 331 739 324 744 b 294 740 307 744 301 743 b 119 464 224 708 136 538 b 115 433 117 454 115 443 b 121 419 115 426 117 419 b 132 407 128 418 132 413 b 122 393 132 401 129 396 b 60 381 104 388 82 381 b 24 389 47 381 35 383 b 0 438 6 400 0 418 b 4 472 0 449 1 461 b 317 800 38 594 165 800 l 318 800 b 464 632 428 800 464 729 b 413 369 464 553 440 457 b 151 -65 374 243 275 -22 b 131 -68 146 -67 139 -68 m 96 -17 b 283 367 147 -17 271 328 b 88 -1 253 329 88 71 b 92 -15 88 -7 89 -12 l 96 -17 "},"K":{"ha":685,"x_min":0,"x_max":0,"o":"m 178 -68 b 100 -32 144 -68 107 -62 l 99 -19 b 160 242 99 22 125 125 b 329 746 218 438 301 678 l 322 747 b 118 450 261 747 131 503 l 117 432 b 121 419 117 425 118 421 b 132 406 128 418 132 413 b 122 393 132 401 129 396 b 60 381 104 388 82 381 b 24 389 47 381 35 383 b 0 438 6 400 0 418 b 4 472 0 449 1 461 b 131 692 21 535 71 624 b 292 800 182 751 239 796 l 317 801 b 453 738 371 801 453 788 b 446 710 453 729 450 719 b 324 364 433 676 378 525 b 707 796 449 479 686 714 b 719 806 708 803 714 806 b 729 803 724 806 726 806 b 785 704 760 779 785 743 b 768 656 785 689 779 672 b 458 379 735 604 592 485 b 565 79 476 286 519 160 b 629 7 575 61 604 7 b 644 14 635 7 640 8 b 654 19 647 18 651 19 b 675 -8 664 19 675 7 b 671 -25 675 -14 674 -19 b 568 -64 663 -43 633 -62 l 567 -64 b 360 301 450 -64 393 176 l 276 228 b 204 -54 257 165 206 8 b 192 -68 204 -61 199 -68 "},"L":{"ha":467,"x_min":0,"x_max":0,"o":"m 500 -147 b 217 -11 403 -147 306 -64 b 114 -68 186 -46 153 -65 l 96 -69 b 0 8 29 -69 0 -32 b 58 104 0 44 22 82 b 118 121 79 115 99 121 b 167 113 133 121 150 118 b 378 746 247 310 294 539 l 371 747 b 167 450 310 747 179 503 l 165 432 b 169 419 165 425 167 421 b 181 406 176 418 181 413 b 171 393 181 401 178 396 b 108 381 153 388 131 381 b 72 389 96 381 83 383 b 49 438 54 400 49 418 b 53 472 49 449 50 461 b 179 692 69 535 119 624 b 340 800 231 751 289 796 l 365 801 b 503 736 419 801 503 788 b 496 710 503 728 500 719 b 268 71 414 507 358 258 b 557 -49 357 25 465 -49 b 601 -42 572 -49 588 -46 l 606 -40 b 619 -56 613 -40 619 -47 l 617 -62 b 511 -147 585 -107 553 -146 m 78 1 b 124 33 97 1 113 19 b 90 39 114 36 101 39 b 67 33 82 39 74 38 b 57 17 61 31 57 24 b 76 1 57 8 61 3 l 78 1 "},"M":{"ha":1089,"x_min":0,"x_max":0,"o":"m 953 -68 b 831 24 881 -68 832 -67 b 1003 664 831 171 944 492 b 701 193 922 571 813 383 b 553 -60 650 106 600 18 b 539 -68 549 -65 546 -68 b 449 -32 501 -68 457 -67 b 447 -14 447 -28 447 -21 b 654 664 447 106 610 535 b 354 193 574 569 465 382 b 203 -61 303 104 251 17 b 190 -68 200 -67 196 -68 l 176 -68 b 101 -32 147 -68 108 -62 l 100 -18 b 161 242 100 26 125 126 b 329 746 219 438 301 678 l 322 747 b 119 450 261 747 131 503 b 117 429 118 442 117 435 b 121 419 117 424 118 421 b 132 407 128 418 132 413 b 122 393 132 401 129 396 b 60 381 104 388 82 381 b 24 389 47 381 35 383 b 0 438 6 400 0 418 b 4 472 0 449 1 461 b 132 692 21 535 72 624 b 292 800 182 751 240 796 l 317 801 b 454 736 371 801 454 788 b 447 710 454 728 451 719 b 242 106 426 660 296 293 b 701 800 357 335 599 799 l 704 800 b 796 725 761 800 796 774 b 785 674 796 710 792 693 b 617 193 728 529 663 340 l 590 108 b 1049 800 706 338 946 799 b 1144 728 1096 800 1144 781 b 1124 650 1144 703 1132 674 b 944 17 1071 506 944 161 b 961 -43 944 -12 949 -33 b 967 -54 965 -46 967 -50 b 953 -68 967 -61 961 -68 "},"N":{"ha":732,"x_min":0,"x_max":0,"o":"m 604 -68 b 482 24 532 -68 483 -67 b 654 664 482 171 596 492 b 353 193 574 571 464 383 b 204 -60 303 106 251 18 b 190 -68 200 -65 197 -68 b 100 -32 153 -68 108 -67 l 99 -19 b 160 242 99 22 125 125 b 329 746 218 438 301 678 l 321 747 b 118 450 260 747 129 503 l 117 431 b 119 419 117 424 117 421 b 132 406 126 418 132 411 b 122 393 132 400 129 396 b 60 381 104 388 82 381 b 24 389 46 381 33 383 b 0 438 6 400 0 418 b 4 472 0 449 1 461 b 131 692 21 535 71 624 b 290 800 182 751 239 796 l 317 801 b 451 739 368 801 447 790 l 451 732 b 446 710 451 725 450 717 b 242 108 425 660 296 296 b 700 800 303 206 604 799 b 796 728 747 800 796 781 b 775 650 796 703 783 674 b 596 17 722 506 596 161 b 613 -43 596 -12 600 -33 b 618 -54 617 -46 618 -50 b 604 -68 618 -61 613 -68 "},"O":{"ha":565,"x_min":0,"x_max":0,"o":"m 181 -11 b 383 340 264 -11 367 281 b 432 611 396 383 432 511 b 356 735 432 681 414 735 l 344 735 b 153 406 235 722 163 496 b 182 414 161 411 172 414 b 249 397 207 414 232 401 b 258 383 254 396 258 390 b 254 374 258 381 257 376 b 186 246 235 354 208 304 b 200 226 194 240 200 233 l 199 222 b 176 215 194 215 183 217 b 144 53 168 192 144 111 b 175 -11 144 19 151 -7 l 181 -11 m 188 -68 b 51 94 82 -68 51 10 b 68 217 51 136 58 181 b 0 331 15 229 0 274 l 0 339 b 344 801 3 506 153 801 b 547 549 492 801 547 692 b 517 342 547 485 536 413 b 188 -68 458 135 335 -68 "},"P":{"ha":776,"x_min":0,"x_max":0,"o":"m 311 -68 b 235 -32 279 -68 242 -62 b 233 -17 233 -28 233 -22 b 285 224 233 26 256 118 b 435 682 338 407 413 631 b 469 697 439 693 453 697 b 551 654 504 697 551 676 l 550 649 b 435 311 508 540 471 422 l 453 308 b 622 435 504 308 571 364 b 697 622 660 486 697 560 b 585 733 697 676 668 722 b 526 738 567 736 547 738 b 88 475 353 738 124 651 b 74 463 86 467 81 463 l 63 465 b 0 597 31 479 0 546 b 19 651 0 619 6 640 b 465 800 147 761 303 800 l 482 800 b 800 583 667 799 800 724 b 761 439 800 542 788 493 b 500 235 710 333 610 244 l 488 235 b 419 261 460 235 442 243 b 339 -54 388 161 339 -4 b 325 -68 339 -61 333 -68 "},"Q":{"ha":574,"x_min":0,"x_max":0,"o":"m 181 -11 b 260 54 206 -11 233 15 b 201 74 242 67 222 74 b 188 86 196 74 188 81 l 189 90 b 272 149 206 124 238 149 b 307 140 283 149 296 146 b 383 340 346 221 375 310 b 432 611 396 383 432 511 b 356 735 432 681 414 735 l 344 735 b 153 406 235 722 164 496 b 182 414 161 411 172 414 b 250 397 207 414 233 401 b 258 385 256 396 258 390 b 254 374 258 381 257 376 b 188 246 235 354 208 304 b 200 226 196 240 200 233 l 199 222 b 176 215 194 215 183 217 b 144 53 168 192 144 111 b 175 -11 144 19 151 -7 l 181 -11 m 492 -154 b 324 -10 426 -154 378 -75 b 188 -68 282 -46 236 -68 b 51 94 82 -68 51 10 b 68 217 51 136 58 181 b 0 331 15 229 0 274 l 0 339 b 344 801 4 506 153 801 b 547 549 492 801 547 692 b 517 342 547 485 536 413 b 386 60 488 238 443 136 b 550 -86 443 -6 514 -86 b 563 -81 554 -86 560 -83 b 572 -76 565 -78 569 -76 b 588 -90 581 -76 588 -82 l 585 -97 b 493 -154 564 -128 531 -154 "},"R":{"ha":782,"x_min":0,"x_max":0,"o":"m 603 -69 b 411 239 471 -69 432 126 b 339 -54 381 139 339 -8 b 325 -68 339 -61 333 -68 l 311 -68 b 235 -32 278 -68 242 -62 b 233 -17 233 -28 233 -22 b 285 224 233 26 256 118 b 435 682 336 407 413 631 b 471 697 439 693 453 697 b 550 654 504 697 550 679 l 549 646 b 435 311 535 611 483 465 b 461 307 443 308 451 307 b 688 564 553 307 653 436 b 696 622 693 583 696 603 b 585 733 696 676 668 722 b 521 738 564 736 542 738 b 260 674 429 738 336 714 b 86 475 171 628 104 558 b 72 463 85 467 81 463 b 61 465 69 463 65 463 b 13 533 46 472 28 493 b 0 599 6 551 0 576 b 19 651 0 619 6 639 b 465 800 147 761 303 800 l 482 800 b 800 583 665 799 800 724 b 761 439 800 540 788 493 b 503 235 710 335 611 246 b 589 61 521 164 551 103 b 706 -1 624 22 665 -1 l 722 0 b 735 -14 729 0 735 -7 b 726 -26 735 -18 732 -24 b 617 -69 699 -43 650 -65 "},"S":{"ha":533,"x_min":0,"x_max":0,"o":"m 164 -68 b 1 57 94 -68 15 -14 l 0 74 b 81 228 0 124 36 203 b 88 229 83 229 85 229 b 101 217 94 229 101 224 b 99 208 101 214 100 211 b 54 88 72 169 54 125 l 54 76 b 125 1 57 38 88 1 b 144 4 132 1 138 3 b 281 126 197 18 246 69 b 335 263 299 154 335 222 l 333 275 b 324 278 333 278 329 278 b 165 249 293 278 196 250 l 163 249 b 40 367 103 249 40 296 b 392 801 40 492 222 801 b 560 619 518 801 560 715 b 539 494 560 578 551 535 b 418 388 511 410 464 388 b 343 401 392 388 365 396 b 332 415 336 403 332 408 b 344 428 332 421 336 428 b 425 532 385 431 414 499 b 446 665 438 572 446 622 l 444 696 b 421 742 442 719 435 742 l 417 742 b 174 339 349 725 174 460 l 176 318 b 203 304 179 308 189 304 b 340 335 242 304 314 335 l 342 335 b 443 246 426 335 443 246 b 164 -68 443 128 311 -68 "},"T":{"ha":422,"x_min":0,"x_max":0,"o":"m 235 -69 b 151 -33 200 -69 158 -60 l 150 -18 b 339 663 150 96 300 575 b 343 669 339 665 342 668 b 213 678 297 674 253 678 b 132 672 183 678 156 676 b 38 625 79 665 44 650 b 25 614 36 618 31 614 b 14 618 21 614 18 615 b 0 668 4 625 0 646 b 13 744 0 700 7 738 b 179 800 49 793 117 800 l 204 800 b 467 765 282 799 376 782 b 693 735 553 750 635 735 b 767 754 728 735 754 740 b 776 758 769 757 772 758 b 789 749 781 758 786 756 b 797 708 794 736 797 722 b 793 678 797 697 796 688 b 754 619 786 651 771 628 b 700 610 740 613 722 610 b 532 636 656 610 597 622 b 457 651 474 647 461 650 l 457 646 l 456 632 b 256 -56 404 514 257 65 b 242 -69 256 -62 250 -69 "},"U":{"ha":749,"x_min":0,"x_max":0,"o":"m 564 -68 b 476 15 510 -68 476 -42 b 575 426 476 103 536 304 b 249 -54 522 331 336 -40 b 225 -56 240 -56 233 -56 b 128 75 157 -56 128 1 b 132 122 128 90 129 106 b 329 746 156 289 303 679 l 322 747 b 119 450 261 747 131 503 b 117 429 118 442 117 435 b 121 419 117 424 118 421 b 132 407 128 418 132 413 b 61 381 132 389 89 381 b 24 389 47 381 35 383 b 0 439 6 400 0 418 b 132 692 0 508 68 618 b 317 801 203 776 247 799 b 454 736 371 801 454 788 b 447 710 454 729 451 719 b 351 443 436 682 396 572 b 224 3 339 406 224 82 b 231 -14 224 -10 225 -14 b 643 639 281 -14 617 569 b 697 785 668 710 689 764 b 732 800 701 794 715 800 b 815 757 767 800 815 779 l 814 751 b 586 -37 758 622 586 129 l 586 -56 b 572 -68 586 -62 579 -68 "},"V":{"ha":751,"x_min":0,"x_max":0,"o":"m 371 -69 b 244 1 328 -69 253 -56 b 239 83 240 25 239 53 b 332 733 239 275 304 569 l 332 736 b 319 747 332 744 326 747 b 301 742 314 747 307 746 b 117 429 236 704 117 479 b 121 419 117 424 118 419 b 132 406 128 418 132 413 b 122 393 132 401 129 396 b 60 381 104 388 82 381 b 24 389 47 381 35 383 b 0 438 6 400 0 418 b 4 472 0 449 1 461 b 292 800 32 576 172 790 l 325 801 b 460 679 435 801 460 740 b 456 633 460 664 458 647 b 379 33 431 478 379 153 b 389 -14 379 3 382 -14 b 656 532 413 -14 551 197 b 694 714 679 606 694 669 b 678 767 694 739 690 757 b 674 775 675 769 674 772 b 689 790 674 783 681 790 b 781 663 754 785 781 733 b 747 490 781 613 768 553 b 389 -68 668 243 464 -60 l 371 -69 "},"W":{"ha":1089,"x_min":0,"x_max":0,"o":"m 731 -69 b 594 33 651 -69 603 -24 b 585 182 589 75 585 126 b 592 318 585 225 586 272 b 479 72 557 226 518 140 b 364 -65 438 -1 396 -57 b 325 -69 351 -68 338 -69 b 211 -14 275 -69 224 -50 b 199 79 201 10 199 42 b 322 732 199 276 306 626 l 322 736 b 314 747 322 744 318 747 b 299 742 308 747 304 744 b 117 429 235 704 117 478 b 121 419 117 424 118 419 b 132 406 128 418 132 413 b 124 393 132 401 129 396 b 61 381 106 388 83 381 b 25 389 49 381 36 383 b 0 439 7 400 0 418 b 4 472 0 450 1 461 b 288 800 32 576 169 790 b 324 801 300 801 313 801 b 444 736 397 801 438 775 l 446 726 b 314 29 446 633 314 190 l 314 14 b 333 -24 315 -14 324 -24 b 435 93 365 -24 425 74 b 644 628 507 231 593 485 b 676 742 654 665 664 703 b 751 775 679 764 717 775 b 813 753 783 775 813 767 l 813 749 b 707 125 736 531 707 281 b 733 -28 707 32 717 -28 l 735 -28 b 1025 704 804 -28 1025 513 b 1007 765 1025 735 1019 756 b 1001 776 1003 768 1001 772 b 1014 790 1001 783 1006 789 l 1017 790 b 1113 631 1092 790 1113 707 b 1104 549 1113 600 1108 571 b 756 -68 1056 306 850 -57 l 731 -69 "},"X":{"ha":704,"x_min":0,"x_max":0,"o":"m 501 -68 b 428 -26 468 -68 438 -58 b 378 292 408 38 390 161 l 300 186 b 74 -68 200 49 118 -67 l 71 -68 b 0 -14 28 -68 0 -35 l 1 -8 b 15 1 4 -3 10 1 l 21 0 b 365 417 50 0 365 414 l 350 596 b 338 743 344 672 340 728 b 329 746 335 746 332 746 b 306 736 322 746 315 743 b 124 450 239 692 139 528 b 121 429 122 442 121 435 b 125 419 121 424 122 421 b 136 407 132 418 136 413 b 126 393 136 401 133 396 b 64 381 108 388 86 381 b 28 389 51 381 39 383 b 4 438 10 400 4 418 b 8 472 4 449 6 461 b 136 692 25 535 76 624 b 296 800 186 751 244 796 l 321 801 b 479 697 389 801 478 775 b 486 574 479 668 482 625 b 728 800 586 703 671 800 l 729 800 b 828 747 768 800 800 779 b 832 739 831 744 832 742 b 819 725 832 732 826 725 l 813 726 b 803 728 810 728 807 728 b 683 651 778 728 736 699 b 496 446 628 600 563 528 b 526 186 504 360 515 267 b 568 -28 543 67 558 -26 b 581 -42 576 -29 581 -35 b 572 -54 581 -47 578 -51 b 501 -68 553 -62 526 -68 "},"Y":{"ha":749,"x_min":0,"x_max":0,"o":"m 310 -69 b 200 19 240 -69 200 -36 b 208 67 200 33 203 50 b 221 76 210 74 215 76 b 235 64 228 76 235 72 b 304 21 236 33 274 21 l 325 24 b 640 594 469 57 600 458 b 311 185 585 481 432 189 l 306 185 b 210 288 235 185 210 231 b 213 326 210 300 210 313 b 292 592 226 418 263 514 b 335 733 315 656 335 710 l 333 742 b 324 746 331 744 328 746 b 300 736 317 746 310 743 b 118 450 233 692 135 528 l 117 432 b 121 419 117 425 118 421 b 132 406 128 418 132 413 b 122 393 132 401 129 396 b 60 381 104 388 82 381 b 24 389 47 381 35 383 b 0 438 6 400 0 418 b 4 472 0 449 1 461 b 131 692 21 535 71 624 b 292 800 182 751 239 796 b 329 801 306 801 318 801 b 436 718 411 801 436 768 b 408 594 436 682 424 639 b 324 274 375 493 324 338 l 324 263 b 328 251 325 256 325 251 l 336 254 b 501 424 386 272 446 340 b 692 785 585 547 669 717 b 728 800 696 796 710 800 b 815 758 765 800 815 782 l 814 753 b 310 -69 744 531 601 -69 "},"Z":{"ha":726,"x_min":0,"x_max":0,"o":"m 67 -69 b 1 -8 32 -69 10 -33 l 0 -3 b 11 10 0 3 4 8 b 64 24 29 15 47 19 b 53 64 57 36 53 50 b 61 97 53 75 56 86 b 672 699 136 249 490 531 b 379 661 590 685 471 661 b 279 678 339 661 304 665 b 251 736 257 688 251 711 b 257 789 251 756 256 775 b 271 801 258 797 264 801 b 283 793 275 801 281 799 b 393 778 288 782 333 778 b 685 800 482 778 601 790 l 690 800 b 786 661 733 800 786 728 b 767 600 786 639 781 618 b 167 46 663 467 328 283 b 408 69 218 57 318 69 b 568 43 474 69 535 63 b 608 -39 583 35 606 -17 l 608 -42 b 596 -57 608 -51 603 -57 b 589 -56 593 -57 592 -57 b 447 -39 567 -43 513 -39 b 75 -68 314 -39 131 -58 l 67 -69 "},"[":{"ha":290,"x_min":0,"x_max":0,"o":""},"\\":{"ha":631,"x_min":0,"x_max":0,"o":""},"]":{"ha":289,"x_min":0,"x_max":0,"o":""},"^":{"ha":214,"x_min":0,"x_max":0,"o":""},"_":{"ha":436,"x_min":0,"x_max":0,"o":""},"`":{"ha":163,"x_min":0,"x_max":0,"o":""},"a":{"ha":481,"x_min":0,"x_max":0,"o":"m 101 104 b 232 286 143 106 218 251 b 251 372 239 304 251 342 b 231 411 251 392 246 407 l 222 413 b 81 142 160 413 81 224 b 101 104 81 118 88 104 m 292 0 b 206 33 257 0 221 4 b 194 92 197 47 194 68 b 197 136 194 106 196 119 b 67 26 165 81 121 26 l 64 26 b -31 156 -3 28 -31 83 b 207 489 -31 293 69 489 l 208 489 b 290 450 244 489 274 476 l 300 475 b 336 490 307 486 319 490 b 411 449 368 490 411 471 l 410 443 b 299 60 392 399 301 160 b 307 28 299 40 300 28 b 481 294 353 29 440 207 b 493 303 483 301 488 303 l 500 301 b 507 290 504 300 507 296 b 506 283 507 288 507 288 b 308 0 460 185 374 3 "},"b":{"ha":451,"x_min":0,"x_max":0,"o":"m 19 -1 b -57 36 -14 -1 -50 4 l -58 53 b -12 260 -58 92 -39 171 b 129 669 35 421 104 617 b 164 685 133 681 147 685 b 246 643 199 685 246 665 l 244 638 b 171 439 235 613 204 533 b 258 490 194 468 224 490 l 263 490 b 360 353 333 490 356 418 l 360 340 b 342 219 360 301 353 258 b 450 293 386 228 429 246 b 463 303 453 300 458 303 b 469 301 464 303 467 303 b 476 289 474 300 476 294 b 475 282 476 288 476 285 b 332 190 444 217 390 197 b 188 22 303 111 253 40 b 163 19 179 21 171 19 b 89 97 118 19 89 54 b 122 175 89 122 99 150 b 218 210 147 199 182 206 b 246 357 232 249 246 310 l 243 389 b 228 411 240 403 238 411 l 225 411 b 101 229 183 408 114 271 b 47 13 82 175 49 69 b 33 -1 47 6 42 -1 m 132 88 b 165 113 140 88 151 94 b 207 179 179 128 193 149 b 140 151 182 175 154 167 b 119 106 126 138 119 119 b 132 88 119 96 124 88 "},"c":{"ha":397,"x_min":0,"x_max":0,"o":"m 132 0 b -29 161 14 4 -29 74 b -3 294 -29 204 -19 250 b 207 490 32 385 106 490 b 238 488 217 490 228 489 b 314 396 293 476 314 436 b 289 324 314 369 304 342 b 251 304 278 311 265 304 b 225 313 243 304 233 307 b 219 325 221 315 219 319 b 221 331 219 326 219 329 b 254 410 226 340 254 388 b 246 422 254 417 251 421 l 242 422 b 96 221 203 422 124 325 b 85 144 89 200 85 172 b 139 33 85 96 99 47 b 160 31 146 32 153 31 b 190 35 169 31 179 32 b 397 294 240 53 310 113 b 408 303 400 301 404 303 b 415 301 413 303 415 301 b 422 289 419 299 422 294 b 421 283 422 289 422 286 b 197 8 329 90 253 28 b 147 0 178 1 161 0 "},"d":{"ha":483,"x_min":0,"x_max":0,"o":"m 292 0 b 213 33 258 0 226 4 b 203 92 206 49 203 68 b 207 147 203 108 204 128 b 65 26 172 88 124 26 l 64 26 b -31 156 -3 28 -31 83 b 207 489 -31 293 69 489 l 208 489 b 288 456 242 489 271 479 b 368 669 321 553 354 636 b 406 685 374 681 388 685 b 492 646 443 685 492 665 l 492 642 b 308 69 476 596 324 213 l 307 39 b 310 28 307 32 308 28 b 340 46 321 28 338 43 b 483 294 388 94 451 224 b 496 303 486 301 490 303 l 503 301 b 510 290 508 299 510 296 b 508 283 510 288 510 286 b 358 26 474 207 414 82 b 311 0 343 11 326 0 m 100 104 b 235 285 143 106 221 249 b 253 371 240 299 253 339 b 225 413 253 394 246 413 l 224 413 b 79 142 158 413 79 224 b 100 104 79 119 85 104 "},"e":{"ha":396,"x_min":0,"x_max":0,"o":"m 121 236 b 260 403 181 236 260 358 b 253 418 260 411 257 415 b 242 421 249 421 246 421 b 151 343 210 421 165 363 b 101 242 131 311 113 275 b 121 236 107 238 114 236 m 132 0 b -29 161 14 4 -29 74 b -3 294 -29 204 -19 250 b 206 490 31 383 104 490 l 211 490 b 307 410 264 489 307 463 l 307 407 b 128 188 304 308 203 188 b 89 201 114 188 100 192 b 83 149 86 185 83 167 b 144 32 83 96 99 42 l 160 31 b 190 35 168 31 179 32 b 396 294 239 53 308 113 b 407 303 399 300 403 303 b 415 300 410 303 413 301 b 422 289 419 299 422 294 b 421 283 422 289 422 286 b 196 7 328 89 251 26 b 147 0 178 1 161 0 "},"f":{"ha":285,"x_min":0,"x_max":0,"o":"m -15 -260 b -104 -214 -50 -260 -86 -246 b -110 -179 -108 -207 -110 -194 l -110 -176 b -18 240 -110 -86 -40 165 b 132 671 39 435 101 617 b 169 686 139 682 153 686 b 251 643 206 686 251 663 l 250 639 b 92 169 231 596 101 228 l 118 168 b 186 181 142 168 163 171 b 285 296 222 197 256 232 b 297 304 288 303 292 304 b 311 292 306 303 311 303 l 310 286 b 194 156 279 218 243 175 b 113 140 171 144 143 140 b 149 39 139 113 149 76 b 138 -47 149 11 143 -18 b -15 -260 122 -115 69 -260 m 0 -231 b 110 -40 44 -218 90 -128 b 122 42 115 -14 122 15 b 79 133 122 78 113 111 b -1 -218 50 11 -1 -167 b 0 -231 -1 -224 -1 -228 "},"g":{"ha":465,"x_min":0,"x_max":0,"o":"m 100 106 b 233 289 142 106 218 250 b 251 374 238 303 251 342 b 224 413 251 394 244 413 b 79 142 158 411 79 224 b 99 106 79 119 85 106 l 100 106 m 21 -260 b -71 -165 -40 -256 -71 -217 b -68 -139 -71 -157 -69 -149 b 144 -18 -51 -56 18 -25 b 185 115 161 28 168 56 b 67 26 153 69 114 26 l 64 26 b -31 156 -3 28 -31 83 b 207 489 -31 293 69 489 l 208 489 b 286 456 240 489 268 478 b 296 478 288 464 290 474 b 333 490 306 488 319 490 b 406 449 367 490 406 468 l 404 444 b 350 274 389 400 369 340 b 257 -11 321 181 289 76 b 356 82 296 10 326 40 b 465 294 392 135 424 206 b 478 303 467 299 472 303 b 483 301 479 303 481 303 b 492 289 488 300 492 296 b 490 283 492 288 492 286 b 378 67 449 193 415 121 b 243 -47 340 13 300 -25 b 31 -260 206 -143 147 -260 m 0 -199 b 133 -47 53 -199 101 -125 b -39 -140 38 -51 -24 -74 b -40 -157 -40 -146 -40 -151 b 0 -199 -40 -181 -28 -199 "},"h":{"ha":481,"x_min":0,"x_max":0,"o":"m 286 -1 b 201 79 238 -1 201 11 b 285 419 204 182 285 404 b 279 429 285 426 283 429 b 265 419 275 429 269 424 b 79 161 189 349 104 206 b 47 14 61 97 47 43 b 19 0 47 0 36 0 b -58 51 -26 0 -54 8 b 128 669 -58 161 93 585 b 164 685 132 681 146 685 b 246 643 199 685 246 665 l 244 638 b 113 268 228 597 164 425 b 181 365 132 299 156 333 b 339 490 225 419 279 490 b 403 432 374 490 403 469 l 401 415 b 315 53 382 319 315 133 b 324 28 315 36 318 28 b 481 294 363 31 392 93 b 493 303 483 300 488 303 b 507 290 500 303 507 297 l 506 283 b 325 0 408 63 378 3 l 286 -1 "},"i":{"ha":243,"x_min":0,"x_max":0,"o":"m 57 0 b -29 33 22 0 -14 4 b -42 94 -37 47 -42 69 b -29 194 -42 124 -36 158 b 60 474 -7 299 39 422 b 94 490 65 485 79 490 b 171 449 128 490 171 469 l 169 443 b 61 51 158 413 61 136 b 72 28 61 36 64 28 b 243 294 118 29 204 207 b 256 303 246 301 250 303 l 263 301 b 269 290 267 300 269 296 b 268 283 269 288 269 286 b 75 0 224 185 139 3 m 176 542 b 108 576 149 542 108 558 b 133 671 108 599 125 653 b 165 688 138 683 150 688 b 239 644 197 688 239 665 b 236 635 239 642 239 638 b 200 551 229 622 210 572 b 176 542 197 544 188 542 "},"j":{"ha":228,"x_min":0,"x_max":0,"o":"m -236 -199 b -103 -47 -183 -199 -135 -125 b -276 -151 -218 -50 -268 -90 l -276 -160 b -236 -199 -276 -185 -261 -199 m 169 542 b 103 576 142 542 103 558 b 128 669 103 599 119 651 b 160 686 132 682 146 686 b 233 643 192 686 233 664 b 231 633 233 640 233 636 b 193 551 224 622 203 572 b 169 542 190 544 181 542 m -215 -260 b -307 -165 -275 -257 -307 -215 b -297 -117 -307 -150 -304 -133 b -92 -18 -271 -49 -197 -21 b 54 472 -31 149 -6 301 b 92 490 58 485 74 490 b 169 450 126 490 169 472 l 168 444 b 21 -11 115 294 76 139 b 118 82 60 10 90 40 b 228 294 154 135 188 206 b 240 303 231 300 235 303 b 247 300 243 303 244 301 b 254 289 251 299 254 294 b 253 283 254 288 254 286 b 142 67 213 193 179 121 b 7 -47 104 13 63 -25 b -206 -260 -31 -143 -89 -260 "},"k":{"ha":499,"x_min":0,"x_max":0,"o":"m 313 0 b 218 33 288 0 232 7 b 182 229 193 75 192 175 b 164 251 179 244 172 251 b 146 244 158 251 153 250 b 81 165 133 233 85 172 b 47 14 61 99 49 43 b 28 0 47 1 39 0 l 21 0 b -58 51 -28 0 -54 8 b 129 669 -58 161 93 585 b 164 685 133 681 147 685 b 246 643 199 685 246 665 l 244 638 b 117 279 229 599 167 433 b 324 490 160 344 264 479 l 339 492 b 422 458 369 492 422 478 b 410 444 422 451 418 444 l 400 446 b 200 300 363 446 233 332 l 219 301 b 257 296 233 301 247 300 b 321 29 307 271 286 33 b 499 294 357 36 413 106 b 510 303 501 300 506 303 b 525 289 518 303 525 296 b 524 283 525 288 525 286 b 313 0 435 85 374 0 "},"l":{"ha":243,"x_min":0,"x_max":0,"o":"m 51 0 b -28 33 18 0 -14 4 b -37 93 -35 49 -37 69 b 128 669 -37 263 106 618 b 165 686 135 681 149 686 b 247 643 201 686 247 663 l 246 639 b 68 69 229 594 83 213 l 67 42 b 69 28 67 33 67 28 l 72 28 b 125 75 90 28 117 64 b 243 294 168 135 215 236 b 256 303 246 301 250 303 b 263 301 257 303 260 303 b 269 290 267 299 269 294 b 268 283 269 288 269 286 b 146 60 239 219 193 122 b 71 0 131 38 100 1 "},"m":{"ha":731,"x_min":0,"x_max":0,"o":"m 536 -1 b 451 79 488 -1 451 11 l 451 92 b 535 419 456 185 533 404 b 529 429 535 426 533 429 b 515 419 525 429 519 424 b 453 349 494 400 472 375 b 329 161 397 276 349 196 b 297 18 313 96 297 40 l 297 15 b 282 0 297 3 290 0 l 267 0 b 192 69 214 0 192 24 l 193 89 b 281 414 203 183 265 361 l 282 424 b 278 429 282 428 281 429 b 263 421 275 429 269 426 b 197 349 239 401 201 353 b 75 161 143 278 94 196 b 43 14 57 100 44 46 b 28 0 43 4 36 0 l 18 0 b -61 39 -15 0 -60 7 l -61 40 b 56 474 -61 124 32 413 b 90 490 60 485 72 490 b 169 449 124 490 169 471 l 168 443 b 107 267 144 385 126 326 b 176 365 128 299 151 332 b 283 475 204 401 244 449 b 335 490 300 486 318 490 b 399 432 369 490 399 469 l 397 415 b 356 258 392 386 372 317 b 431 365 378 292 403 329 b 538 475 460 401 499 449 b 589 490 554 486 572 490 b 653 432 624 490 653 469 l 651 415 b 565 53 632 319 565 133 b 574 28 565 36 567 28 b 626 76 592 29 606 40 b 731 294 651 117 682 185 b 742 303 733 300 738 303 b 757 289 750 303 757 297 b 756 283 757 288 757 286 b 650 61 707 172 675 103 b 575 0 622 17 601 1 l 536 -1 "},"n":{"ha":478,"x_min":0,"x_max":0,"o":"m 283 -1 b 199 79 233 -1 199 10 b 281 422 201 181 279 406 b 276 429 281 426 279 429 b 263 421 272 429 267 425 b 76 163 196 361 101 206 b 44 14 60 101 46 46 b 26 0 44 1 38 0 l 19 0 b -60 39 -14 0 -58 7 b 57 474 -60 110 22 383 b 92 490 61 485 75 490 b 171 449 125 490 171 471 l 169 443 b 108 268 158 417 113 279 b 178 365 129 299 153 333 b 336 490 219 419 278 490 b 400 432 371 490 400 469 l 399 415 b 313 53 379 319 313 133 b 321 28 313 36 314 28 b 478 294 356 31 381 76 b 489 303 481 300 485 303 b 504 289 497 303 504 297 b 503 283 504 288 504 286 b 322 0 406 63 375 3 l 283 -1 "},"o":{"ha":419,"x_min":0,"x_max":0,"o":"m 106 43 b 229 221 160 43 214 178 b 199 286 207 238 199 263 b 250 374 199 326 224 367 b 219 406 246 392 238 406 l 213 406 b 72 106 146 394 72 206 b 101 43 72 71 81 46 l 106 43 m 96 0 b -28 160 8 0 -28 71 b 197 490 -28 303 68 490 b 232 486 208 490 219 489 b 318 342 299 469 318 407 b 300 226 318 301 310 258 b 419 296 346 226 396 250 b 431 303 422 301 426 303 b 439 300 433 303 436 301 b 444 290 443 299 444 294 b 443 282 444 288 444 285 b 301 199 415 229 357 199 l 290 199 b 96 0 260 111 192 0 "},"p":{"ha":464,"x_min":0,"x_max":0,"o":"m 136 81 b 165 99 144 81 154 88 b 194 138 176 111 186 124 b 211 167 204 150 210 160 b 124 115 165 164 136 147 b 121 100 121 110 121 104 b 136 81 121 88 125 81 m -47 -256 b -115 -201 -93 -256 -115 -237 b -67 56 -115 -154 -99 -68 b 63 474 -15 263 28 401 b 97 490 69 485 82 490 b 151 478 115 490 133 486 b 178 450 169 469 178 460 l 172 433 b 268 490 201 471 233 490 b 357 415 314 490 343 465 b 367 350 364 394 367 372 b 338 203 365 300 356 251 b 465 296 397 211 439 242 b 476 303 468 300 472 303 b 490 285 486 303 490 297 b 325 174 456 217 401 179 b 147 29 281 78 221 29 b 89 88 108 29 89 49 b 126 165 89 115 101 142 b 225 194 153 185 186 194 b 257 353 246 249 257 301 b 233 413 257 393 249 413 b 178 364 218 413 200 396 b 107 233 150 325 126 282 b -8 -237 31 -17 -8 -174 b -19 -254 -8 -249 -12 -254 l -47 -256 "},"q":{"ha":493,"x_min":0,"x_max":0,"o":"m 207 -260 b 124 -211 176 -260 136 -244 l 122 -197 b 182 111 122 -140 154 6 b 67 26 151 67 113 26 l 64 26 b -31 156 -3 28 -31 83 b 207 489 -31 293 69 489 l 208 489 b 288 453 242 489 271 478 b 300 479 290 461 296 475 b 335 490 310 486 322 490 b 413 447 371 490 413 465 l 411 442 b 301 97 399 413 335 211 b 492 294 397 119 450 199 b 506 303 494 300 500 303 l 511 301 b 519 289 515 299 519 294 l 518 283 b 329 76 475 188 421 107 b 360 3 351 60 360 33 b 351 -60 360 -18 357 -39 b 213 -260 338 -125 294 -256 m 226 -229 b 325 -54 281 -210 314 -104 b 333 1 329 -37 333 -18 b 292 64 333 29 324 54 b 226 -229 264 -36 231 -168 m 100 106 b 154 150 114 106 133 124 b 232 288 182 188 213 240 b 251 374 238 301 251 342 b 224 413 251 396 244 413 b 79 142 158 411 79 224 b 99 106 79 119 85 106 l 100 106 "},"r":{"ha":374,"x_min":0,"x_max":0,"o":"m 194 0 b 96 33 161 0 113 1 b 85 89 89 47 85 67 b 179 440 85 193 154 365 b 113 432 161 439 136 432 b 90 435 106 432 97 432 b 25 283 69 381 57 353 b 14 275 24 279 18 275 b 7 276 11 275 10 275 b -1 289 3 278 -1 281 b 0 294 -1 290 -1 292 b 67 447 33 368 43 390 b 49 486 54 457 49 471 b 63 544 49 506 56 526 b 96 560 67 556 82 560 b 131 543 113 560 131 554 l 129 539 b 108 478 124 519 113 488 b 207 490 146 479 178 490 b 282 428 242 490 276 464 l 283 418 b 257 322 283 396 272 367 b 190 67 235 260 190 136 l 193 43 b 208 26 196 31 201 26 b 260 69 226 26 253 58 b 374 294 286 108 321 178 b 385 303 376 300 381 303 b 394 300 389 303 392 301 b 400 289 397 299 400 294 b 399 283 400 288 400 286 b 283 54 346 165 311 94 b 208 0 253 10 233 0 "},"s":{"ha":326,"x_min":0,"x_max":0,"o":"m 60 0 b -61 113 -22 0 -61 53 b -29 207 -61 144 -50 178 b 0 221 -22 217 -11 221 b 72 172 32 221 72 192 b 67 163 72 169 71 165 b 25 67 44 144 25 96 b 33 44 25 56 28 49 b 42 42 36 42 39 42 b 67 57 50 42 60 49 b 92 156 86 82 92 117 b 75 361 92 222 75 300 b 76 390 75 371 75 381 l 26 282 b 14 275 24 278 18 275 b 7 276 11 275 10 275 b 0 286 4 278 0 279 b 1 296 0 289 0 293 b 111 490 13 321 85 490 l 214 490 b 228 478 222 490 228 485 b 225 468 228 475 228 471 b 192 357 200 431 192 393 b 211 181 192 299 211 240 b 207 139 211 167 210 153 b 179 63 200 107 192 82 b 249 153 197 82 226 119 b 326 296 272 190 299 236 b 339 303 329 301 333 303 b 346 301 340 303 343 303 b 353 289 350 299 353 294 l 351 283 b 269 135 326 231 299 179 b 204 49 249 103 228 75 b 72 0 163 3 114 0 "},"t":{"ha":244,"x_min":0,"x_max":0,"o":"m 53 0 b -25 33 19 0 -12 4 b -36 96 -32 49 -36 71 b 72 524 -36 204 21 385 b -4 525 44 525 18 525 b -18 539 -12 526 -18 533 b -4 553 -18 546 -12 553 l 82 551 b 131 669 100 599 117 639 b 165 686 135 682 149 686 b 251 643 201 686 251 664 l 250 639 b 213 547 238 611 225 581 l 282 546 b 296 532 290 546 296 539 b 281 518 296 525 290 518 b 201 519 257 519 231 519 b 83 131 158 392 111 249 b 68 40 81 122 68 65 b 74 28 68 31 69 28 b 125 74 89 28 115 61 b 246 294 168 132 218 235 b 258 303 249 301 253 303 b 265 301 260 303 263 303 b 272 289 269 299 272 294 b 271 283 272 289 272 286 b 143 51 242 217 190 114 b 74 0 126 32 100 1 "},"u":{"ha":481,"x_min":0,"x_max":0,"o":"m 293 0 b 207 33 258 0 222 4 b 196 90 199 47 196 67 b 200 144 196 107 197 125 b 168 89 192 126 181 107 b 72 0 139 42 104 1 l 54 0 b -32 33 19 0 -17 4 b -43 90 -40 47 -43 67 b -29 194 -43 119 -37 157 b 63 474 -8 292 42 429 b 97 490 68 485 81 490 b 174 449 131 490 174 469 l 172 443 b 61 60 154 399 64 160 b 69 28 61 40 63 28 b 147 106 85 28 111 47 b 246 322 176 151 208 221 b 301 474 265 385 288 443 b 336 490 306 485 319 490 b 413 449 369 490 413 471 l 411 443 b 300 60 393 399 303 160 b 310 28 300 40 301 28 b 379 99 328 29 353 58 b 482 294 418 158 458 243 b 494 303 485 301 490 303 b 501 301 496 303 499 303 b 508 290 506 299 508 294 b 507 283 508 288 508 286 b 399 78 481 226 440 140 b 311 0 368 33 338 1 "},"v":{"ha":392,"x_min":0,"x_max":0,"o":"m 144 0 b 13 35 79 1 26 -1 b -10 176 -4 74 -10 124 b 36 472 -10 275 13 386 b 71 490 39 485 54 490 b 147 450 104 490 147 471 l 146 443 b 99 156 114 360 99 246 b 118 39 99 85 104 47 b 297 440 171 90 297 321 l 297 453 b 293 479 297 463 296 472 l 292 485 b 306 497 292 492 299 497 b 375 449 325 497 374 472 b 376 433 376 440 376 442 b 167 11 376 314 214 50 b 144 0 161 6 150 0 "},"w":{"ha":669,"x_min":0,"x_max":0,"o":"m 406 0 b 279 33 347 1 296 -3 b 256 176 264 72 256 125 l 256 199 b 121 0 240 161 163 0 l 106 0 b 13 33 69 0 26 1 b -10 179 -3 71 -10 121 b 38 471 -7 282 3 354 b 72 489 40 483 54 489 b 149 447 104 489 149 469 l 147 442 b 100 154 115 358 100 244 b 122 38 100 81 106 51 b 256 272 147 47 218 160 b 299 422 275 332 290 394 b 335 440 301 436 317 440 b 410 401 367 440 410 422 l 408 394 b 364 146 381 319 364 226 b 386 32 367 74 372 51 b 546 414 443 74 528 288 l 546 425 b 539 478 546 446 542 471 l 538 483 b 553 497 538 492 544 497 b 633 449 594 490 632 469 b 635 433 635 440 635 443 b 440 8 635 360 549 104 b 408 0 433 1 414 0 "},"x":{"ha":451,"x_min":0,"x_max":0,"o":"m -12 -1 b -40 13 -26 -1 -40 3 b -36 22 -40 15 -39 18 b 108 197 6 72 56 132 b 89 422 99 272 92 357 l 26 283 b 15 275 24 278 19 275 b 0 289 7 275 0 281 b 1 294 0 290 0 292 b 74 454 21 338 53 411 b 156 490 83 475 124 490 b 194 464 176 490 194 483 l 203 314 b 349 485 254 376 307 439 b 369 492 351 489 361 492 b 397 478 383 492 397 488 b 392 468 397 475 396 472 l 210 250 b 268 28 213 222 222 31 l 271 28 b 342 83 294 28 315 43 b 451 294 371 125 406 193 b 464 303 454 300 460 303 b 478 290 471 303 478 297 b 476 283 478 289 478 286 b 365 67 431 181 394 111 b 268 0 331 18 303 0 l 254 0 b 154 32 219 0 171 6 b 121 140 142 51 131 92 l 8 6 b -12 -1 6 1 -4 -1 "},"y":{"ha":468,"x_min":0,"x_max":0,"o":"m 25 -260 b -67 -165 -35 -256 -67 -218 l -65 -143 b 147 -18 -51 -56 21 -26 b 190 124 165 31 174 61 b 74 0 157 63 113 1 l 56 0 b -31 33 21 0 -15 4 b -42 90 -39 47 -42 67 b 64 474 -42 203 33 410 b 99 490 69 485 82 490 b 175 447 132 490 175 469 l 174 442 b 60 50 161 411 60 132 b 71 28 60 36 64 28 b 149 106 86 29 113 47 b 247 324 176 151 211 222 b 296 472 261 372 278 422 b 333 490 300 485 315 490 b 410 450 367 490 410 472 l 408 444 b 354 274 392 400 374 340 b 261 -11 325 181 293 76 b 358 82 300 10 331 40 b 468 294 396 135 428 206 b 481 303 471 300 476 303 b 494 290 488 303 494 297 b 493 283 494 289 494 286 b 382 67 453 193 419 121 b 247 -47 344 13 303 -25 b 35 -260 210 -143 151 -260 m 4 -199 b 138 -47 57 -199 106 -125 b -32 -131 22 -54 -18 -82 b -36 -158 -35 -140 -36 -150 b 4 -199 -36 -181 -26 -199 "},"z":{"ha":426,"x_min":0,"x_max":0,"o":"m 1 -262 b -104 -165 -58 -262 -104 -226 l -103 -150 b 113 -18 -93 -61 -11 -21 b 132 64 122 13 132 40 b 86 114 132 89 121 107 b 74 128 78 115 74 122 b 86 142 74 135 79 140 b 218 311 144 151 194 232 b 236 401 226 342 236 375 b 174 461 236 436 221 461 l 169 461 b 24 283 101 461 51 344 b 11 275 21 278 17 275 b -3 288 4 275 -3 281 b -1 294 -3 289 -3 292 b 171 489 36 376 81 485 l 194 489 b 335 379 290 489 335 451 b 318 288 335 353 329 322 b 182 131 297 219 254 154 b 243 36 219 115 243 82 b 238 -4 243 24 242 10 b 319 81 269 17 294 44 b 429 293 356 133 389 204 b 442 301 432 299 438 301 b 456 289 449 301 456 296 l 454 282 b 343 65 414 192 381 119 b 226 -40 311 19 271 -18 b 1 -262 197 -132 132 -260 m -35 -197 b -4 -190 -25 -197 -15 -194 b 101 -47 31 -174 79 -108 b -72 -150 -8 -51 -61 -81 l -72 -158 b -35 -197 -72 -186 -57 -197 "},"{":{"ha":240,"x_min":0,"x_max":0,"o":""},"|":{"ha":200,"x_min":0,"x_max":0,"o":""},"}":{"ha":218,"x_min":0,"x_max":0,"o":""},"~":{"ha":324,"x_min":0,"x_max":0,"o":""},"¡":{"ha":307,"x_min":0,"x_max":0,"o":""},"¢":{"ha":394,"x_min":0,"x_max":0,"o":""},"£":{"ha":496,"x_min":0,"x_max":0,"o":""},"¥":{"ha":482,"x_min":0,"x_max":0,"o":""},"©":{"ha":651,"x_min":0,"x_max":0,"o":""},"®":{"ha":651,"x_min":0,"x_max":0,"o":""},"¿":{"ha":482,"x_min":0,"x_max":0,"o":""},"À":{"ha":843,"x_min":0,"x_max":0,"o":"m 639 -71 b 539 25 561 -71 540 -26 l 539 31 b 565 213 539 79 554 169 l 393 214 b 124 -43 292 90 200 0 b 104 -49 117 -47 111 -49 b 8 10 63 -49 18 6 b 0 22 3 13 0 18 b 15 38 0 31 6 38 l 19 38 b 76 54 38 38 60 46 b 276 214 135 82 204 140 l 203 213 b 182 236 188 213 182 224 l 182 243 b 228 299 186 267 210 299 b 357 300 268 299 311 299 b 665 679 471 426 583 574 l 749 786 b 769 799 753 792 763 796 l 782 800 b 856 753 817 800 856 774 l 854 747 b 715 299 813 663 757 474 l 775 297 b 792 286 783 297 789 292 b 794 274 793 282 794 278 b 742 210 794 247 771 210 l 740 210 b 696 211 726 211 713 211 b 657 -29 674 108 657 18 l 660 -57 b 646 -71 660 -64 654 -71 m 585 299 b 679 607 611 400 646 513 b 460 300 597 485 525 383 l 585 299 m 903 881 b 782 969 890 889 799 956 b 778 981 779 972 778 976 b 815 1022 778 997 797 1022 b 828 1017 819 1022 824 1019 b 926 908 846 1001 924 913 b 929 901 928 907 929 904 b 907 879 929 892 917 879 "},"Á":{"ha":843,"x_min":0,"x_max":0,"o":"m 639 -71 b 539 25 561 -71 540 -26 l 539 31 b 565 213 539 79 554 169 l 393 214 b 124 -43 292 90 200 0 b 104 -49 117 -47 111 -49 b 8 10 63 -49 18 6 b 0 22 3 13 0 18 b 15 38 0 31 6 38 l 19 38 b 76 54 38 38 60 46 b 276 214 135 82 204 140 l 203 213 b 182 236 188 213 182 224 l 182 243 b 228 299 186 267 210 299 b 357 300 268 299 311 299 b 665 679 471 426 583 574 l 749 786 b 769 799 753 792 763 796 l 782 800 b 856 753 817 800 856 774 l 854 747 b 715 299 813 663 757 474 l 775 297 b 792 286 783 297 789 292 b 794 274 793 282 794 278 b 742 210 794 247 771 210 l 740 210 b 696 211 726 211 713 211 b 657 -29 674 108 657 18 l 660 -57 b 646 -71 660 -64 654 -71 m 585 299 b 679 607 611 400 646 513 b 460 300 597 485 525 383 l 585 299 m 813 879 b 794 904 803 879 794 893 b 799 914 794 908 796 911 b 918 996 801 917 897 985 l 928 999 b 960 956 944 999 960 974 b 951 939 960 949 957 942 b 815 881 933 929 829 886 l 813 879 "},"Â":{"ha":843,"x_min":0,"x_max":0,"o":"m 639 -71 b 539 25 561 -71 540 -26 l 539 31 b 565 213 539 79 554 169 l 393 214 b 124 -43 292 90 200 0 b 104 -49 117 -47 111 -49 b 8 10 63 -49 18 6 b 0 22 3 13 0 18 b 15 38 0 31 6 38 l 19 38 b 76 54 38 38 60 46 b 276 214 135 82 204 140 l 203 213 b 182 236 188 213 182 224 l 182 243 b 228 299 186 267 210 299 b 357 300 268 299 311 299 b 665 679 471 426 583 574 l 749 786 b 769 799 753 792 763 796 l 782 800 b 856 753 817 800 856 774 l 854 747 b 715 299 813 663 757 474 l 775 297 b 792 286 783 297 789 292 b 794 274 793 282 794 278 b 742 210 794 247 771 210 l 740 210 b 696 211 726 211 713 211 b 657 -29 674 108 657 18 l 660 -57 b 646 -71 660 -64 654 -71 m 585 299 b 679 607 611 400 646 513 b 460 300 597 485 525 383 l 585 299 m 911 881 b 888 890 900 882 892 881 b 868 949 879 907 871 935 b 790 888 844 928 811 900 l 788 888 b 775 900 782 888 775 894 b 779 908 775 903 776 906 b 872 1004 797 925 850 982 b 889 1008 876 1007 882 1008 b 907 999 899 1008 907 1006 b 924 892 908 982 915 913 l 925 886 b 917 881 925 882 921 881 "},"Ã":{"ha":843,"x_min":0,"x_max":0,"o":"m 639 -71 b 539 25 561 -71 540 -26 l 539 31 b 565 213 539 79 554 169 l 393 214 b 124 -43 292 90 200 0 b 104 -49 117 -47 111 -49 b 8 10 63 -49 18 6 b 0 22 3 13 0 18 b 15 38 0 31 6 38 l 19 38 b 76 54 38 38 60 46 b 276 214 135 82 204 140 l 203 213 b 182 236 188 213 182 224 l 182 243 b 228 299 186 267 210 299 b 357 300 268 299 311 299 b 665 679 471 426 583 574 l 749 786 b 769 799 753 792 763 796 l 782 800 b 856 753 817 800 856 774 l 854 747 b 715 299 813 663 757 474 l 775 297 b 792 286 783 297 789 292 b 794 274 793 282 794 278 b 742 210 794 247 771 210 l 740 210 b 696 211 726 211 713 211 b 657 -29 674 108 657 18 l 660 -57 b 646 -71 660 -64 654 -71 m 585 299 b 679 607 611 400 646 513 b 460 300 597 485 525 383 l 585 299 m 811 879 b 754 926 792 879 771 890 l 753 933 b 771 950 753 943 763 950 b 781 944 775 950 779 949 b 808 925 789 931 799 925 b 868 951 826 925 846 939 b 903 963 879 958 892 963 b 953 919 919 963 936 951 l 954 914 b 939 897 954 904 947 897 b 925 904 935 897 929 899 b 906 915 919 913 913 915 b 854 892 893 915 876 904 b 811 879 840 885 826 879 "},"Ä":{"ha":843,"x_min":0,"x_max":0,"o":"m 639 -71 b 539 25 561 -71 540 -26 l 539 31 b 565 213 539 79 554 169 l 393 214 b 124 -43 292 90 200 0 b 104 -49 117 -47 111 -49 b 8 10 63 -49 18 6 b 0 22 3 13 0 18 b 15 38 0 31 6 38 l 19 38 b 76 54 38 38 60 46 b 276 214 135 82 204 140 l 203 213 b 182 236 188 213 182 224 l 182 243 b 228 299 186 267 210 299 b 357 300 268 299 311 299 b 665 679 471 426 583 574 l 749 786 b 769 799 753 792 763 796 l 782 800 b 856 753 817 800 856 774 l 854 747 b 715 299 813 663 757 474 l 775 297 b 792 286 783 297 789 292 b 794 274 793 282 794 278 b 742 210 794 247 771 210 l 740 210 b 696 211 726 211 713 211 b 657 -29 674 108 657 18 l 660 -57 b 646 -71 660 -64 654 -71 m 585 299 b 679 607 611 400 646 513 b 460 300 597 485 525 383 l 585 299 m 785 868 b 740 903 750 868 740 886 b 742 917 740 908 740 913 b 797 967 751 947 763 967 l 804 967 b 840 932 829 965 840 951 b 836 911 840 925 839 918 b 788 868 826 882 808 868 m 933 863 b 890 897 900 863 890 881 b 892 911 890 903 890 907 b 947 961 901 942 913 961 l 954 961 b 990 926 979 960 990 946 b 986 906 990 919 989 913 b 936 863 976 876 958 863 "},"Å":{"ha":843,"x_min":0,"x_max":0,"o":"m 639 -71 b 539 25 561 -71 540 -26 l 539 31 b 565 213 539 79 554 169 l 393 214 b 124 -43 292 90 200 0 b 104 -49 117 -47 111 -49 b 8 10 63 -49 18 6 b 0 22 3 13 0 18 b 15 38 0 31 6 38 l 19 38 b 76 54 38 38 60 46 b 276 214 135 82 204 140 l 203 213 b 182 236 188 213 182 224 l 182 243 b 228 299 186 267 210 299 b 357 300 268 299 311 299 b 665 679 471 426 583 574 l 749 786 b 769 799 753 792 763 796 l 782 800 b 856 753 817 800 856 774 l 854 747 b 715 299 813 663 757 474 l 775 297 b 792 286 783 297 789 292 b 794 274 793 282 794 278 b 742 210 794 247 771 210 l 740 210 b 696 211 726 211 713 211 b 657 -29 674 108 657 18 l 660 -57 b 646 -71 660 -64 654 -71 m 585 299 b 679 607 611 400 646 513 b 460 300 597 485 525 383 l 585 299 m 885 878 b 913 908 892 878 901 886 b 924 944 921 924 924 936 b 918 956 924 951 922 956 b 888 922 911 956 900 946 b 878 890 881 910 878 897 b 885 878 878 882 881 878 m 889 846 b 869 850 883 846 876 847 b 839 897 850 858 839 875 b 850 940 839 910 843 925 b 911 985 864 965 885 985 b 933 981 918 985 926 983 b 960 935 953 972 960 954 b 950 893 960 921 957 906 b 889 846 936 867 915 846 "},"Æ":{"ha":843,"x_min":0,"x_max":0,"o":"m 585 299 b 679 607 613 404 644 507 b 460 300 597 486 525 383 l 585 299 m 643 -71 b 560 -43 601 -71 574 -61 b 539 28 546 -25 539 -1 b 565 213 539 78 547 139 l 393 214 b 124 -43 292 88 201 3 b 104 -49 117 -47 111 -49 b 60 -32 89 -49 75 -43 b 25 -4 44 -22 33 -12 b 8 10 17 4 11 8 b 0 22 3 14 0 18 b 18 38 0 32 6 38 b 276 214 76 38 163 96 l 203 213 b 182 236 189 213 182 221 b 200 281 182 250 188 265 b 228 299 210 293 218 299 l 357 300 b 643 650 464 424 560 540 l 707 733 b 758 794 736 771 754 792 b 782 800 764 797 771 799 b 832 785 800 800 817 794 b 853 764 842 778 849 771 b 1001 800 901 788 951 800 b 1094 781 1035 800 1065 793 b 1190 622 1158 751 1190 699 b 1154 499 1190 579 1178 538 b 1036 419 1125 454 1086 428 b 985 451 1015 419 997 431 b 965 514 972 472 965 493 b 979 528 965 524 969 528 b 1083 608 1018 528 1051 554 b 1101 665 1096 629 1101 649 b 1094 688 1101 675 1099 682 b 1047 710 1082 703 1067 710 b 961 682 1021 710 992 700 b 890 629 929 663 906 644 b 843 569 874 613 858 593 b 821 500 828 546 821 524 b 875 424 821 471 839 444 b 908 399 886 417 897 408 b 928 344 918 389 925 371 b 915 329 928 336 924 332 b 769 261 869 319 821 296 b 757 253 768 260 764 257 b 692 192 729 232 707 213 b 651 82 664 150 651 114 b 679 18 651 50 660 29 b 718 7 693 11 706 7 b 858 54 764 7 810 22 b 983 167 907 85 949 122 b 1036 293 1018 210 1036 253 b 1050 311 1036 306 1040 311 l 1056 310 b 1147 221 1117 289 1147 260 b 1132 165 1147 206 1142 186 b 976 -6 1096 94 1044 38 b 758 -69 908 -49 835 -69 b 658 -49 721 -69 688 -62 l 660 -57 b 643 -71 660 -67 654 -71 m 735 379 b 796 407 754 390 775 399 b 749 429 778 413 761 419 l 735 379 "},"Ç":{"ha":647,"x_min":0,"x_max":0,"o":"m 161 -276 b 111 -258 140 -276 121 -269 b 104 -236 107 -253 104 -244 b 117 -204 104 -224 110 -210 l 119 -203 b 126 -208 122 -203 126 -206 l 126 -210 b 124 -221 126 -211 124 -217 b 136 -233 124 -225 126 -231 b 154 -236 142 -235 147 -236 b 242 -167 192 -236 238 -204 l 242 -164 b 215 -143 242 -149 231 -143 b 171 -157 200 -143 182 -150 l 168 -157 b 139 -121 158 -157 139 -133 l 139 -118 b 181 -62 143 -106 165 -81 b 4 138 89 -42 25 24 b 0 193 1 154 0 174 b 454 801 0 419 196 800 b 608 744 529 801 579 779 b 644 628 633 714 644 674 b 626 517 644 593 639 556 b 482 288 596 418 532 322 b 436 275 469 279 453 275 b 328 331 390 275 338 303 l 328 335 b 340 349 328 342 333 347 b 568 679 417 354 568 578 b 564 704 568 689 567 697 b 521 726 558 721 540 726 b 490 722 510 726 500 724 b 143 128 311 685 143 332 b 149 69 143 107 144 88 b 244 -3 158 24 193 0 l 253 -3 b 651 296 407 -3 572 179 b 663 303 654 300 658 303 l 668 301 b 676 290 674 300 676 296 l 675 283 b 246 -68 603 107 453 -68 l 243 -68 b 215 -67 233 -68 224 -68 l 181 -111 b 211 -107 190 -108 200 -107 b 261 -125 231 -107 250 -111 b 275 -169 271 -136 275 -151 b 269 -204 275 -181 274 -193 b 161 -276 250 -254 200 -276 "},"È":{"ha":679,"x_min":0,"x_max":0,"o":"m 201 -69 b 0 118 78 -69 0 15 b 40 247 0 160 13 204 b 239 407 89 322 154 378 b 136 533 165 428 136 478 b 274 751 136 613 194 706 b 444 800 325 782 386 800 b 607 721 511 800 572 775 b 633 622 625 692 633 657 b 496 422 633 535 581 444 l 479 419 b 408 514 436 419 408 472 b 422 528 408 521 415 528 l 433 528 b 544 665 476 528 544 615 b 538 688 544 675 542 682 b 490 710 526 703 510 710 b 333 629 436 710 363 658 b 264 500 301 596 264 546 b 288 447 264 482 271 463 b 349 400 307 428 331 419 b 371 344 360 388 368 371 b 358 329 371 338 365 331 b 93 106 264 310 104 207 l 92 85 b 161 7 92 10 151 7 l 172 7 b 479 290 288 7 479 175 l 479 296 b 493 311 479 304 486 311 l 499 310 b 590 221 553 292 590 267 b 575 165 590 206 585 186 b 201 -69 507 24 356 -69 m 582 881 b 461 969 569 889 478 956 b 457 981 458 972 457 976 b 494 1022 457 997 476 1022 b 507 1017 499 1022 503 1019 b 606 908 525 1001 603 913 b 608 901 607 907 608 904 b 586 879 608 892 596 879 "},"É":{"ha":668,"x_min":0,"x_max":0,"o":"m 203 -69 b 0 118 79 -69 0 15 b 42 247 0 160 14 204 b 239 407 89 322 154 378 b 136 533 165 428 136 478 b 274 751 136 613 194 706 b 444 800 325 782 388 800 b 607 721 511 800 574 775 b 633 622 625 692 633 657 b 496 422 633 535 581 444 l 479 419 b 408 514 436 419 408 472 b 422 528 408 521 415 528 l 433 528 b 544 667 476 528 544 617 b 539 688 544 675 543 682 b 492 710 526 703 510 710 b 333 629 436 710 363 658 b 264 500 301 596 264 546 b 288 447 264 481 271 463 b 349 400 307 428 332 419 b 371 344 360 388 368 371 b 358 329 371 338 367 331 b 93 106 265 310 104 207 l 92 88 b 161 7 92 10 151 7 l 172 7 b 481 292 288 7 481 176 l 481 297 b 493 311 481 304 486 311 l 499 310 b 590 221 553 292 590 267 b 575 165 590 206 586 188 b 203 -69 507 24 356 -69 m 424 879 b 406 904 414 879 406 893 b 410 914 406 908 407 911 b 529 996 413 917 508 985 l 539 999 b 571 956 556 999 571 974 b 563 939 571 949 568 942 b 426 881 544 929 440 886 l 424 879 "},"Ê":{"ha":675,"x_min":0,"x_max":0,"o":"m 203 -69 b 0 118 79 -69 0 15 b 42 247 0 160 14 204 b 240 407 89 322 156 378 b 136 533 167 428 136 478 b 274 751 136 613 196 706 b 444 800 325 782 388 800 b 608 721 513 800 574 775 b 635 624 626 692 635 658 b 497 422 635 536 582 444 l 481 419 b 410 514 436 419 410 472 b 424 528 410 521 417 528 l 433 528 b 544 667 476 528 544 617 b 539 688 544 675 543 682 b 492 710 526 703 510 710 b 335 629 436 710 363 658 b 265 500 303 596 265 546 b 288 447 265 481 272 463 b 349 400 307 428 332 419 b 371 344 360 388 368 371 l 371 342 b 360 329 371 336 365 331 b 93 106 265 310 104 207 l 92 88 b 161 7 92 10 151 7 l 172 7 b 481 292 289 7 481 176 l 481 297 b 494 311 481 304 488 311 l 500 310 b 590 222 554 292 590 267 b 575 165 590 206 586 188 b 203 -69 507 24 357 -69 m 544 881 b 521 890 533 882 525 881 b 501 949 513 907 504 935 b 424 888 478 928 444 900 l 421 888 b 408 900 415 888 408 894 b 413 908 408 903 410 906 b 506 1004 431 925 483 982 b 522 1008 510 1007 515 1008 b 540 999 532 1008 540 1006 b 557 892 542 982 549 913 l 558 886 b 550 881 558 882 554 881 "},"Ë":{"ha":675,"x_min":0,"x_max":0,"o":"m 201 -69 b 0 118 78 -69 0 15 b 40 247 0 160 13 204 b 239 407 88 322 154 378 b 135 533 165 428 135 478 b 274 751 135 613 194 706 b 444 800 325 782 386 800 b 607 721 511 800 572 775 b 633 624 625 692 633 658 b 496 422 633 536 581 444 l 479 419 b 408 514 435 419 408 472 b 422 528 408 521 415 528 l 433 528 b 543 667 476 528 543 617 b 538 688 543 675 542 682 b 490 710 526 703 510 710 b 333 629 436 710 361 658 b 264 500 301 596 264 546 b 286 447 264 481 271 463 b 347 400 307 428 331 419 b 369 344 358 388 367 371 l 369 342 b 358 329 369 336 364 331 b 92 106 264 310 103 207 l 90 88 b 161 7 90 10 150 7 l 172 7 b 479 290 288 7 479 175 l 479 296 b 493 311 479 304 486 311 l 499 310 b 589 222 553 292 589 267 b 574 165 589 206 585 188 b 201 -69 506 24 356 -69 m 399 874 b 354 908 364 874 354 892 b 356 922 354 914 354 918 b 411 972 365 953 376 972 l 418 972 b 454 938 443 971 454 957 b 450 917 454 931 453 924 b 401 874 440 888 422 874 m 549 868 b 504 903 514 868 504 886 b 506 917 504 908 504 913 b 561 967 515 947 526 967 l 568 967 b 604 932 593 965 604 951 b 600 911 604 925 603 918 b 551 868 590 883 572 868 "},"Ì":{"ha":404,"x_min":0,"x_max":0,"o":"m 178 -69 b 100 -33 144 -69 107 -64 l 99 -22 b 160 240 99 19 125 124 b 329 743 218 436 301 676 b 321 744 326 744 324 744 b 118 449 261 744 131 501 l 117 431 b 121 418 117 424 118 419 b 132 404 128 417 132 410 b 122 392 132 399 129 393 b 60 379 104 386 82 379 b 24 388 47 379 35 382 b 0 436 6 399 0 417 b 4 471 0 447 1 460 b 292 799 32 575 172 789 l 317 800 b 453 733 369 800 453 786 b 446 707 453 726 450 717 b 271 201 428 664 336 410 b 204 -56 233 85 206 -18 b 192 -69 204 -64 199 -69 m 474 840 b 468 842 471 840 469 840 b 349 931 457 850 365 917 b 344 942 346 933 344 938 b 382 983 344 958 364 983 b 394 978 386 983 390 981 b 493 869 413 963 490 874 b 496 863 494 868 496 865 b 474 840 496 853 483 840 "},"Í":{"ha":414,"x_min":0,"x_max":0,"o":"m 178 -69 b 101 -33 146 -69 108 -64 l 100 -22 b 161 240 100 19 126 124 b 331 743 219 436 303 676 l 322 744 b 119 449 261 744 131 501 l 118 429 b 121 418 118 422 118 419 b 132 404 128 417 132 411 b 122 392 132 399 129 393 b 61 379 106 386 82 379 b 25 388 47 379 35 382 b 0 436 7 399 0 417 b 6 471 0 447 3 460 b 292 799 33 575 174 789 l 317 800 b 454 733 371 800 454 786 b 447 707 454 726 451 717 b 272 201 428 664 338 410 b 206 -56 235 85 207 -18 b 192 -69 206 -64 200 -69 m 357 874 b 339 899 349 874 339 888 b 343 907 339 901 340 906 b 464 990 347 910 443 978 b 472 992 467 992 469 992 b 506 949 490 992 506 967 b 497 933 506 942 503 936 b 360 875 478 924 374 881 l 357 874 "},"Î":{"ha":414,"x_min":0,"x_max":0,"o":"m 178 -69 b 100 -33 144 -69 107 -64 l 99 -22 b 160 240 99 19 125 124 b 329 743 218 436 301 676 l 321 744 b 118 449 260 744 129 501 l 117 431 b 121 418 117 424 118 419 b 132 404 128 417 132 410 b 122 392 132 399 129 393 b 60 379 104 386 82 379 b 24 388 46 379 33 382 b 0 436 6 399 0 417 b 4 471 0 447 1 460 b 292 799 32 575 172 789 l 317 800 b 453 733 369 800 453 786 b 446 707 453 726 450 717 b 271 201 428 664 336 410 b 204 -56 233 85 206 -18 b 192 -69 204 -64 199 -69 m 488 861 b 464 871 476 863 469 861 b 446 929 456 888 449 914 b 367 867 422 908 389 879 l 365 867 b 353 881 358 867 353 874 b 357 889 353 883 354 886 b 450 983 375 906 428 963 b 468 989 454 988 461 989 b 485 979 476 989 483 986 b 500 872 485 963 493 893 l 501 867 b 493 861 501 863 497 861 "},"Ï":{"ha":404,"x_min":0,"x_max":0,"o":"m 178 -69 b 100 -33 144 -69 107 -64 l 99 -22 b 161 240 99 19 125 124 b 329 743 218 436 301 676 b 321 744 326 744 324 744 b 119 449 261 744 131 501 b 117 428 118 440 117 433 b 121 418 117 422 118 419 b 132 404 128 417 132 411 b 122 392 132 399 129 393 b 60 379 104 386 82 379 b 24 388 47 379 35 382 b 0 436 6 399 0 417 b 4 471 0 447 1 460 b 292 799 33 575 172 789 l 317 800 b 453 733 371 800 453 786 b 447 707 453 725 451 717 b 271 201 428 664 336 410 b 204 -56 233 85 206 -18 l 204 -58 b 192 -69 204 -65 199 -69 m 346 868 b 301 903 311 868 301 886 b 303 917 301 908 301 913 b 358 967 313 947 324 967 l 365 967 b 401 932 390 965 401 951 b 397 911 401 925 400 918 b 349 868 388 882 369 868 m 494 863 b 451 897 461 863 451 881 b 453 911 451 903 451 907 b 508 961 463 942 474 961 l 515 961 b 551 926 540 960 551 946 b 547 906 551 919 550 913 b 497 863 538 876 519 863 "},"Ð":{"ha":871,"x_min":0,"x_max":0,"o":"m 388 -69 b 142 38 307 -69 193 -26 b 138 51 139 42 138 47 b 149 72 138 63 143 72 l 150 72 b 257 32 185 57 226 39 l 257 44 b 324 342 257 97 286 218 l 272 342 b 257 364 261 342 257 351 b 283 415 257 385 271 414 l 307 417 l 346 415 b 438 681 382 532 418 639 b 472 696 442 692 456 696 b 554 653 507 696 554 675 l 553 647 b 467 414 540 617 504 522 b 544 411 504 414 535 413 b 560 390 556 410 560 401 b 531 340 560 369 544 340 l 442 340 b 356 28 397 208 356 75 l 357 18 b 722 536 572 19 722 328 b 621 719 722 631 690 706 b 529 728 592 725 561 728 b 286 675 447 728 360 710 b 85 474 183 631 103 558 b 71 461 83 465 79 461 b 60 464 68 461 64 461 b 0 596 29 478 0 544 b 18 650 0 618 6 639 b 464 799 146 760 301 799 l 481 799 b 833 539 653 797 810 724 b 838 478 836 519 838 499 b 388 -69 838 226 653 -69 "},"Ñ":{"ha":735,"x_min":0,"x_max":0,"o":"m 606 -69 b 483 22 533 -69 483 -68 l 483 25 b 654 663 483 174 597 490 b 354 192 575 569 465 381 b 204 -61 303 104 251 17 b 190 -69 201 -67 197 -69 b 101 -33 154 -69 110 -69 l 100 -19 b 161 240 100 22 126 125 b 329 743 219 436 303 676 b 321 744 326 744 324 744 b 119 449 261 744 131 501 b 117 428 118 440 117 433 b 121 418 117 422 118 419 b 132 404 128 417 132 411 b 122 392 132 399 129 393 b 61 379 106 386 82 379 b 24 388 47 379 35 382 b 0 436 6 399 0 417 b 4 471 0 447 1 460 b 132 690 22 533 72 622 b 292 799 182 750 240 794 l 318 800 b 453 738 369 800 449 789 l 453 732 b 447 707 453 724 450 717 b 242 106 426 658 297 294 b 701 799 303 204 604 797 b 797 726 747 799 796 779 b 776 649 797 700 785 672 b 597 15 724 504 597 160 b 614 -44 597 -14 601 -35 b 619 -56 617 -47 619 -51 b 606 -69 619 -62 614 -69 m 551 879 b 494 926 532 879 511 890 l 493 933 b 511 950 493 943 503 950 b 521 944 515 950 519 949 b 549 925 529 931 539 925 b 608 951 567 925 586 939 b 643 963 619 958 632 963 b 693 919 660 963 676 951 l 694 914 b 679 897 694 904 688 897 b 665 904 675 897 669 899 b 646 915 660 913 653 915 b 594 892 633 915 617 904 b 551 879 581 885 567 879 "},"Ò":{"ha":592,"x_min":0,"x_max":0,"o":"m 181 -12 b 383 339 265 -12 367 279 b 432 610 396 382 432 510 b 356 733 432 679 414 733 l 344 733 b 153 404 235 721 164 494 b 182 413 161 410 172 413 b 250 396 207 413 233 400 b 258 383 256 394 258 389 b 254 372 258 379 257 375 b 188 244 235 353 208 303 b 200 225 196 239 200 231 l 199 221 b 176 214 194 214 183 215 b 144 51 168 190 144 110 b 175 -12 144 18 151 -8 l 181 -12 m 188 -69 b 51 93 82 -69 51 8 b 68 215 51 135 58 179 b 0 329 15 228 0 272 l 0 338 b 344 800 4 504 153 800 b 547 547 492 800 547 690 b 517 340 547 483 536 411 b 188 -69 460 132 335 -69 m 482 871 b 361 960 469 879 378 946 b 357 971 358 963 357 967 b 394 1013 357 988 376 1013 b 407 1007 399 1013 403 1010 b 506 899 425 992 503 903 b 508 892 507 897 508 894 b 486 869 508 882 496 869 "},"Ó":{"ha":596,"x_min":0,"x_max":0,"o":"m 181 -12 b 383 339 265 -12 367 279 b 432 610 396 382 432 510 b 356 733 432 679 414 733 l 344 733 b 153 404 235 721 164 494 b 182 413 161 410 172 413 b 250 396 207 413 233 400 b 258 383 256 394 258 389 b 254 372 258 379 257 375 b 188 244 235 353 208 303 b 200 225 196 239 200 231 l 199 221 b 176 214 194 214 183 215 b 144 51 168 190 144 110 b 175 -12 144 18 151 -8 l 181 -12 m 188 -69 b 51 93 82 -69 51 8 b 68 215 51 135 58 179 b 0 329 15 228 0 272 l 0 338 b 344 800 4 504 153 800 b 547 547 492 800 547 690 b 517 340 547 483 536 411 b 188 -69 460 132 335 -69 m 317 883 b 297 908 307 883 297 899 b 301 917 297 911 299 915 b 422 1000 306 919 401 989 b 431 1001 425 1001 428 1001 b 464 958 449 1001 464 976 b 456 943 464 951 461 946 b 319 885 438 933 333 890 l 317 883 "},"Ô":{"ha":583,"x_min":0,"x_max":0,"o":"m 181 -12 b 383 339 264 -12 367 279 b 432 610 396 382 432 510 b 356 733 432 679 414 733 l 344 733 b 153 404 235 721 164 494 b 182 413 161 410 172 413 b 249 396 207 413 232 400 b 258 382 254 394 258 389 b 254 372 258 379 257 375 b 186 244 235 353 208 303 b 200 225 194 239 200 231 l 199 221 b 176 214 194 214 183 215 b 144 51 168 190 144 110 b 175 -12 144 18 151 -8 l 181 -12 m 188 -69 b 51 93 82 -69 51 8 b 68 215 51 135 58 179 b 0 329 15 228 0 272 l 0 338 b 343 800 3 504 153 800 b 547 547 492 800 547 690 b 517 340 547 482 536 411 b 188 -69 458 132 335 -69 m 467 879 b 443 889 457 881 449 879 b 425 947 435 906 428 933 b 347 886 401 926 368 899 l 344 886 b 332 899 339 886 332 892 b 336 907 332 901 333 904 b 429 1001 354 924 407 981 b 447 1007 433 1006 440 1007 b 464 997 456 1007 463 1004 b 479 890 465 981 472 911 l 481 885 b 472 879 481 881 476 879 "},"Õ":{"ha":576,"x_min":0,"x_max":0,"o":"m 181 -12 b 383 339 265 -12 367 279 b 432 610 396 382 432 510 b 356 733 432 679 414 733 l 344 733 b 153 404 235 721 164 494 b 183 413 163 410 172 413 b 250 396 208 413 233 400 b 260 383 256 394 260 389 b 254 372 260 379 257 375 b 188 244 235 353 208 303 b 200 225 196 239 200 231 l 199 221 b 176 214 196 214 183 215 b 144 51 168 190 144 110 b 175 -12 144 18 151 -8 l 181 -12 m 188 -69 b 51 93 82 -69 51 8 b 68 215 51 135 58 179 b 0 329 15 228 0 272 l 0 338 b 344 800 4 504 154 800 b 547 547 492 800 547 690 b 517 340 547 483 536 411 b 188 -69 460 132 335 -69 m 364 878 b 307 925 344 878 324 889 l 306 932 b 324 949 306 942 315 949 b 333 943 328 949 331 946 b 363 924 342 929 351 924 b 421 950 379 924 399 938 b 454 961 432 957 443 961 b 506 917 472 961 489 949 l 507 911 b 490 896 507 903 500 896 b 478 903 486 896 482 897 b 458 914 472 911 465 914 b 407 890 446 914 429 903 b 364 878 393 883 379 878 "},"Ö":{"ha":588,"x_min":0,"x_max":0,"o":"m 317 876 b 269 913 279 876 269 894 b 271 925 269 917 269 921 b 329 976 281 957 292 976 l 333 976 b 369 940 358 975 369 960 b 365 919 369 933 368 926 b 317 876 356 892 338 876 m 465 871 b 419 907 429 871 419 890 b 421 919 419 911 419 915 b 476 971 431 951 442 971 l 483 971 b 518 935 508 969 518 954 b 515 915 518 928 517 922 b 465 871 506 886 488 872 m 181 -12 b 383 339 264 -12 367 279 b 432 610 396 382 432 510 b 356 733 432 679 414 733 l 344 733 b 153 404 235 721 163 494 b 182 413 161 410 172 413 b 249 396 207 413 232 400 b 258 382 254 394 258 389 b 254 372 258 379 257 375 b 186 244 235 353 208 303 b 200 224 194 239 200 231 l 199 221 b 176 214 194 214 183 215 b 144 51 168 190 144 110 b 175 -12 144 18 151 -8 l 181 -12 m 188 -69 b 50 92 81 -69 50 7 b 68 215 50 133 58 178 b 0 329 15 228 0 272 l 0 338 b 343 800 3 504 153 800 b 547 547 492 800 547 690 b 517 340 547 482 536 411 b 188 -69 458 132 335 -69 "},"Ø":{"ha":583,"x_min":0,"x_max":0,"o":"m 149 101 b 424 679 226 278 340 519 b 354 733 413 713 392 733 l 344 733 b 153 404 235 721 164 494 b 182 413 161 410 172 413 b 250 396 207 413 233 400 b 258 383 256 394 258 389 b 254 372 258 379 257 375 b 186 244 235 353 208 303 b 200 225 194 239 200 231 l 199 221 b 176 214 194 214 183 215 b 149 101 171 197 156 149 m 181 -12 b 383 339 265 -12 367 279 b 431 568 393 376 422 478 b 161 -6 346 397 238 164 b 175 -12 165 -10 169 -11 l 181 -12 m 99 -119 b 69 -93 85 -119 69 -107 l 71 -87 b 90 -35 75 -74 82 -56 b 51 93 61 -4 51 43 b 68 215 51 135 58 179 b 0 329 15 228 0 272 l 0 338 b 344 800 4 504 153 800 b 467 763 396 800 436 786 b 493 808 476 781 485 796 b 506 814 496 813 500 814 b 540 785 519 814 540 800 b 538 775 540 782 539 778 l 507 719 b 547 547 535 675 547 614 b 517 340 547 482 536 411 b 188 -69 460 132 335 -69 b 136 -62 168 -69 151 -67 l 117 -108 b 99 -119 113 -117 106 -119 "},"Ù":{"ha":742,"x_min":0,"x_max":0,"o":"m 563 -69 b 476 11 511 -69 476 -44 l 476 14 b 574 425 476 101 536 303 b 247 -56 521 329 336 -42 b 225 -57 239 -57 232 -57 b 128 76 156 -57 128 1 b 131 121 128 90 129 106 b 329 744 156 288 301 678 l 322 746 b 118 449 261 746 131 501 l 117 431 b 121 418 117 424 118 419 b 132 404 128 417 132 411 b 122 392 132 400 129 394 b 60 379 104 386 82 379 b 24 388 47 379 35 382 b 0 436 6 399 0 417 b 4 471 0 447 1 460 b 131 690 21 533 71 622 b 292 799 182 750 239 794 l 317 800 b 453 735 369 800 453 786 b 446 707 453 726 450 717 b 350 442 435 681 394 571 b 222 1 338 404 222 81 b 228 -15 222 -8 224 -14 l 229 -15 b 642 638 281 -15 615 568 b 697 783 668 708 688 763 b 732 799 701 793 715 799 b 814 757 767 799 814 778 l 813 750 b 585 -36 757 621 585 132 l 586 -54 b 571 -69 586 -62 581 -69 m 629 864 b 510 953 618 874 526 939 b 506 964 507 956 506 960 b 543 1006 506 981 525 1006 b 556 1000 547 1006 551 1003 b 654 893 574 985 651 896 b 657 886 656 892 657 889 b 633 863 657 875 643 863 "},"Ú":{"ha":754,"x_min":0,"x_max":0,"o":"m 564 -69 b 476 11 511 -69 478 -44 l 476 14 b 574 425 476 101 536 303 b 249 -56 522 329 336 -42 b 225 -57 240 -57 233 -57 b 128 74 157 -57 128 0 b 132 121 128 89 129 104 b 329 744 156 288 303 678 l 322 746 b 119 449 261 746 131 501 b 117 428 118 440 117 433 b 121 418 117 422 118 419 b 132 406 128 417 132 411 b 122 392 132 400 129 394 b 61 379 106 386 82 379 b 24 388 47 379 35 382 b 0 436 6 399 0 417 b 4 471 0 447 1 460 b 132 690 21 533 72 622 b 292 799 182 750 240 794 l 317 800 b 454 733 371 800 454 786 b 447 707 454 726 451 717 b 351 442 436 681 396 571 b 224 1 338 404 224 82 b 229 -15 224 -8 225 -14 l 231 -15 b 643 638 281 -15 615 568 b 697 783 668 708 689 763 b 732 799 701 793 715 799 b 815 756 767 799 815 778 l 814 750 b 586 -39 758 621 586 128 l 586 -54 b 572 -69 586 -62 581 -69 m 553 893 b 535 918 543 893 535 907 b 539 928 535 922 536 925 b 658 1010 542 931 638 999 l 668 1013 b 700 968 685 1013 700 986 b 693 953 700 961 699 956 b 556 894 674 943 569 900 l 553 893 "},"Û":{"ha":764,"x_min":0,"x_max":0,"o":"m 564 -69 b 476 11 511 -69 478 -44 l 476 14 b 574 425 476 101 536 303 b 249 -56 522 329 336 -42 b 225 -57 240 -57 233 -57 b 128 74 157 -57 128 0 b 132 121 128 89 129 104 b 329 744 156 288 303 678 l 322 746 b 119 449 261 746 131 501 b 117 428 118 440 117 433 b 121 418 117 422 118 419 b 132 406 128 417 132 411 b 122 392 132 400 129 394 b 61 379 106 386 82 379 b 24 388 47 379 35 382 b 0 436 6 399 0 417 b 4 471 0 447 1 460 b 132 690 21 533 72 622 b 292 799 182 750 240 794 l 317 800 b 454 733 371 800 454 786 b 447 707 454 726 451 717 b 351 442 436 681 396 571 b 224 1 338 404 224 82 b 229 -15 224 -8 225 -14 l 231 -15 b 643 638 281 -15 615 568 b 697 783 668 708 689 763 b 732 799 701 793 715 799 b 815 756 767 799 815 778 l 814 750 b 586 -39 758 621 586 128 l 586 -54 b 572 -69 586 -62 581 -69 m 654 871 b 631 881 644 872 636 871 b 613 939 622 897 615 925 b 535 878 589 918 556 890 l 532 878 b 519 890 526 878 519 883 b 524 899 519 893 521 896 b 617 993 542 915 594 972 b 635 999 621 997 628 999 b 651 989 643 999 650 996 b 667 882 653 972 660 903 l 668 876 b 660 871 668 872 664 871 "},"Ü":{"ha":746,"x_min":0,"x_max":0,"o":"m 563 -69 b 475 11 511 -69 476 -44 b 574 425 475 97 535 301 b 247 -56 521 329 336 -42 b 225 -57 239 -57 232 -57 b 128 75 156 -57 128 1 b 131 121 128 90 128 106 b 329 744 156 288 301 678 l 321 746 b 118 449 260 746 129 501 l 117 431 b 121 418 117 424 118 419 b 131 406 128 417 131 411 b 122 392 131 400 128 394 b 60 379 104 386 82 379 b 24 388 46 379 33 382 b 0 436 6 399 0 417 b 4 471 0 447 1 460 b 131 690 21 533 71 622 b 290 799 181 750 239 794 l 315 800 b 453 735 369 800 453 786 b 446 707 453 726 450 717 b 350 442 435 681 394 571 b 222 1 338 404 222 81 b 228 -15 222 -8 224 -14 l 229 -15 b 642 638 281 -15 615 568 b 697 783 667 708 688 763 b 732 799 701 793 715 799 b 814 757 767 799 814 778 l 813 750 b 585 -39 757 621 585 128 l 585 -57 b 571 -69 585 -64 578 -69 m 507 879 b 461 914 471 879 461 897 b 463 928 461 919 461 924 b 518 978 472 958 483 978 l 525 978 b 560 943 549 976 560 963 b 556 922 560 936 558 929 b 507 879 546 894 529 879 m 657 874 b 610 907 621 874 610 890 b 613 922 610 913 611 918 b 668 972 621 953 633 972 l 675 972 b 710 938 699 971 710 957 b 706 917 710 931 708 924 b 657 874 696 889 679 874 "},"Ÿ":{"ha":761,"x_min":0,"x_max":0,"o":"m 310 -71 b 200 19 242 -71 200 -37 b 208 65 200 33 203 49 b 221 75 211 72 215 75 b 236 63 228 75 235 69 b 303 19 236 31 272 19 l 326 22 b 640 593 469 56 600 457 b 311 183 586 478 433 188 l 306 183 b 210 289 235 183 210 231 b 213 325 210 300 211 313 b 292 590 226 417 263 513 b 335 731 315 653 335 706 l 333 740 b 325 744 332 743 328 744 b 301 735 318 744 310 740 b 119 449 235 690 135 526 b 117 428 118 440 117 433 b 121 418 117 422 118 419 b 132 406 128 417 132 411 b 122 392 132 400 129 394 b 61 379 106 386 82 379 b 24 388 47 379 35 382 b 0 436 6 399 0 417 b 4 471 0 447 1 460 b 132 690 21 533 72 622 b 292 799 182 750 240 794 l 326 800 b 436 717 411 800 436 767 b 408 593 436 681 424 638 b 325 272 375 492 325 336 l 325 261 b 329 250 326 254 326 250 l 336 253 b 503 422 386 271 446 339 b 692 783 585 546 669 715 b 728 799 696 794 710 799 b 817 756 765 799 817 779 l 815 750 b 310 -71 744 529 601 -71 m 504 875 b 460 910 469 875 460 893 b 461 924 460 915 460 919 b 517 974 471 954 482 974 l 524 974 b 560 939 549 972 560 958 b 556 918 560 932 558 925 b 507 875 546 889 528 875 m 654 869 b 610 904 619 869 610 888 b 611 918 610 910 610 914 b 667 968 621 949 632 968 l 674 968 b 710 933 699 967 710 953 b 706 913 710 926 708 919 b 657 869 696 883 678 869 "},"Ý":{"ha":754,"x_min":0,"x_max":0,"o":"m 310 -71 b 200 18 240 -71 200 -37 b 208 65 200 32 203 49 b 221 75 210 72 215 75 b 235 63 228 75 235 69 b 303 19 236 31 272 19 l 325 22 b 640 593 469 56 600 457 b 311 183 585 478 432 188 l 306 183 b 210 286 235 183 210 229 b 213 325 210 299 210 311 b 290 590 226 417 263 513 b 335 732 315 654 335 708 l 333 740 b 324 744 331 743 328 744 b 300 735 318 744 310 740 b 118 449 233 690 135 526 l 117 431 b 121 418 117 424 118 419 b 132 404 128 417 132 411 b 122 392 132 400 129 394 b 60 379 104 386 82 379 b 24 388 46 379 33 382 b 0 436 6 399 0 417 b 4 471 0 447 1 460 b 131 690 21 533 71 622 b 292 799 182 750 239 794 l 326 800 b 436 717 411 800 436 767 b 408 593 436 681 424 638 b 324 272 375 492 324 336 l 324 261 b 328 250 325 254 325 250 l 336 253 b 501 422 386 271 446 339 b 692 783 585 546 669 715 b 728 799 696 794 710 799 b 815 756 764 799 815 781 l 814 750 b 310 -71 744 529 601 -71 m 507 851 b 489 876 499 851 489 865 b 493 886 489 881 490 883 b 614 968 497 889 593 957 l 624 971 b 656 928 640 971 656 946 b 647 911 656 921 653 914 b 510 853 628 901 524 858 l 507 851 "},"Þ":{"ha":821,"x_min":0,"x_max":0,"o":"m 356 -68 b 279 -32 324 -68 286 -62 l 278 -19 b 431 546 278 75 400 456 b 228 481 358 539 286 514 b 88 346 147 438 88 379 b 72 332 88 336 82 332 b 0 421 47 332 0 365 b 6 454 0 432 1 443 b 181 567 18 494 86 538 b 451 608 258 592 354 608 b 513 783 479 694 503 760 b 549 799 518 794 532 799 b 631 757 583 799 631 779 l 575 597 b 786 406 682 575 786 517 l 786 399 b 510 138 781 260 647 150 l 496 138 b 433 158 471 138 453 143 b 383 -54 404 60 383 -22 b 369 -68 383 -62 378 -68 m 464 210 b 686 410 549 210 664 322 b 690 440 689 421 690 431 b 556 540 690 503 636 526 b 449 211 521 439 482 319 l 464 210 "},"ß":{"ha":618,"x_min":0,"x_max":0,"o":"m 279 -69 b 151 6 224 -69 165 -46 l 151 7 b 168 13 151 10 160 13 b 193 3 179 13 190 10 b 249 -22 201 -15 225 -22 b 288 -17 263 -22 276 -19 b 419 251 349 1 419 144 b 415 292 419 265 418 279 b 326 364 404 340 379 356 b 279 414 313 372 286 400 b 278 421 278 417 278 418 b 290 433 278 428 283 433 l 307 433 b 501 601 410 433 472 524 b 519 682 513 632 519 660 b 469 750 519 717 506 742 b 438 754 458 753 449 754 b 306 647 372 754 332 696 b 181 278 281 601 226 438 b 106 -56 140 135 107 -6 b 93 -69 106 -64 100 -69 l 79 -69 b 1 -33 46 -69 8 -64 b 0 -15 0 -29 0 -22 b 78 350 0 44 35 199 b 214 710 122 506 178 661 b 392 799 260 769 307 799 b 571 740 468 799 532 778 b 618 626 604 710 618 669 b 429 375 618 522 533 404 b 515 288 463 358 496 335 b 528 213 525 265 528 239 b 456 7 528 139 499 58 b 286 -69 411 -46 367 -69 "},"à":{"ha":479,"x_min":0,"x_max":0,"o":"m 99 104 b 229 286 140 106 215 251 b 250 371 236 304 250 342 b 228 411 250 390 244 407 l 219 413 b 78 142 157 413 78 224 b 99 104 78 118 85 104 m 289 0 b 203 32 254 0 218 4 b 192 90 194 46 192 67 b 194 135 192 104 193 119 b 63 25 163 79 117 25 b -32 156 -4 26 -32 82 b 206 489 -32 293 68 489 l 207 489 b 288 450 242 489 271 476 l 299 475 b 332 490 304 486 317 490 b 408 449 365 490 408 469 l 407 443 b 296 60 389 399 299 160 b 304 28 296 42 297 28 l 306 28 b 479 294 351 29 438 207 b 492 303 482 300 486 303 b 497 301 493 303 494 303 b 506 289 501 299 506 294 b 504 283 506 288 506 286 b 307 0 458 185 372 3 m 343 561 b 222 650 331 571 239 636 b 218 661 219 653 218 657 b 256 703 218 678 238 703 b 268 697 260 703 264 700 b 367 590 286 682 364 593 b 369 583 368 589 369 586 b 347 560 369 572 356 560 "},"á":{"ha":479,"x_min":0,"x_max":0,"o":"m 100 104 b 231 286 142 106 217 251 b 250 372 238 304 250 342 b 229 411 250 392 244 407 l 221 413 b 79 142 158 413 79 224 b 100 104 79 118 86 104 m 290 0 b 204 32 256 0 219 4 b 193 90 196 46 193 67 b 196 135 193 104 194 119 b 63 25 164 79 118 25 b -32 156 -4 26 -32 82 b 206 489 -32 293 68 489 l 207 489 b 289 450 243 489 272 476 l 299 475 b 333 490 304 486 318 490 b 410 449 367 490 410 469 l 408 443 b 297 60 390 399 300 160 b 304 28 297 42 299 28 l 306 28 b 479 294 353 29 439 207 b 492 303 482 300 488 303 b 499 301 494 303 496 303 b 506 290 503 299 506 294 b 504 283 506 288 506 286 b 307 0 460 185 372 3 m 219 557 b 201 582 210 557 201 571 b 206 592 201 586 203 589 b 326 674 208 594 304 663 l 335 676 b 367 633 353 676 367 651 b 360 617 367 626 365 619 b 222 558 340 607 236 564 l 219 557 "},"â":{"ha":479,"x_min":0,"x_max":0,"o":"m 100 104 b 231 286 142 106 217 251 b 250 372 238 304 250 342 b 229 411 250 392 244 407 l 221 413 b 79 142 158 413 79 224 b 100 104 79 118 86 104 m 290 0 b 204 32 256 0 219 4 b 193 90 196 46 193 67 b 196 135 193 104 194 119 b 63 25 164 79 118 25 b -32 156 -4 26 -32 82 b 206 489 -32 293 68 489 l 207 489 b 289 450 243 489 272 476 l 299 475 b 333 490 304 486 318 490 b 408 449 367 490 408 469 l 407 443 b 297 60 390 399 299 160 l 297 50 b 304 28 297 38 300 28 l 306 28 b 479 294 351 29 439 207 b 492 303 482 300 488 303 b 499 301 493 303 496 303 b 506 290 503 299 506 294 b 504 283 506 288 506 286 b 307 0 458 185 372 3 m 340 543 b 318 553 331 544 322 543 b 299 611 310 569 301 597 b 221 550 275 590 242 563 l 218 550 b 206 563 213 550 206 557 b 210 571 206 565 207 568 b 303 665 228 588 281 644 b 321 671 307 669 314 671 b 338 661 329 671 338 668 b 354 554 339 644 346 575 l 356 549 b 346 543 356 544 351 543 "},"ã":{"ha":479,"x_min":0,"x_max":0,"o":"m 99 104 b 231 286 140 106 215 251 b 250 372 238 304 250 342 b 229 411 250 392 244 407 l 221 413 b 78 142 157 413 78 224 b 99 104 78 118 85 104 m 289 0 b 203 32 254 0 218 4 b 192 90 194 46 192 67 b 194 135 192 104 193 119 b 63 25 163 79 117 25 b -32 156 -4 26 -32 82 b 206 489 -32 293 68 489 l 207 489 b 288 450 242 489 271 476 l 299 475 b 332 490 304 486 317 490 b 408 449 365 490 408 469 l 407 443 b 296 60 389 399 299 160 b 304 28 296 42 297 28 l 306 28 b 479 294 351 29 439 207 b 492 303 482 300 486 303 b 497 301 493 303 494 303 b 506 289 501 299 506 294 b 504 283 506 288 506 286 b 307 0 458 185 371 3 m 235 554 b 178 601 214 554 193 565 l 176 608 b 194 625 176 618 186 625 b 204 619 199 625 201 622 b 232 600 213 606 221 600 b 292 626 249 600 268 614 b 325 638 303 633 314 638 b 375 593 343 638 360 625 l 376 588 b 361 572 376 579 369 572 b 349 579 357 572 353 574 b 329 590 343 586 336 590 b 278 567 317 590 300 579 b 235 554 264 560 250 554 "},"ä":{"ha":481,"x_min":0,"x_max":0,"o":"m 101 104 b 232 286 143 106 218 251 b 253 371 239 304 253 342 b 231 411 253 390 247 407 l 222 413 b 81 142 160 413 81 224 b 101 104 81 118 88 104 m 292 0 b 206 32 257 0 221 4 b 194 90 197 46 194 67 b 197 135 194 104 196 119 b 65 25 165 79 119 25 b -29 156 -1 26 -29 82 b 208 489 -29 293 71 489 l 210 489 b 290 450 244 489 274 476 l 301 475 b 335 490 307 486 319 490 b 411 449 368 490 411 469 l 410 443 b 299 60 392 399 301 160 b 306 28 299 42 300 28 l 307 28 b 481 294 354 29 440 207 b 494 303 483 300 489 303 b 500 301 496 303 497 303 b 507 290 504 299 507 294 b 506 283 507 288 507 286 b 310 0 461 185 374 3 m 207 554 b 164 589 174 554 164 572 b 165 603 164 594 164 599 b 221 653 175 633 186 653 l 228 653 b 263 618 251 651 263 638 b 258 597 263 611 261 604 b 210 554 249 568 232 554 m 360 549 b 313 585 322 549 313 567 b 314 597 313 589 313 593 b 371 647 324 628 336 647 l 378 647 b 413 613 401 646 413 632 b 408 592 413 606 411 599 b 360 549 399 564 382 549 "},"å":{"ha":479,"x_min":0,"x_max":0,"o":"m 100 104 b 231 286 142 106 217 251 b 251 371 238 304 251 342 b 229 411 251 390 246 407 l 221 413 b 79 142 158 413 79 224 b 100 104 79 118 86 104 m 290 0 b 204 32 256 0 219 4 b 193 90 196 46 193 67 b 196 135 193 104 194 119 b 64 25 164 79 118 25 b -31 156 -3 26 -31 82 b 207 489 -31 293 69 489 l 208 489 b 289 450 243 489 272 476 l 300 475 b 333 490 306 486 318 490 b 410 449 367 490 410 469 l 408 443 b 297 60 390 399 300 160 b 306 28 297 42 299 28 l 307 28 b 479 294 353 29 439 207 b 493 303 482 300 488 303 b 499 301 494 303 496 303 b 506 290 503 299 506 294 b 504 283 506 288 506 286 b 308 0 460 185 372 3 m 275 578 b 303 608 282 578 292 586 b 314 644 311 624 314 636 b 308 656 314 651 313 656 b 278 622 301 656 290 646 b 268 590 271 610 268 597 b 275 578 268 582 271 578 m 279 546 b 260 550 274 546 267 547 b 229 597 240 558 229 575 b 240 640 229 610 233 625 b 301 685 254 665 275 685 b 324 681 308 685 317 683 b 350 635 343 672 350 654 b 340 593 350 621 347 606 b 279 546 326 567 306 546 "},"æ":{"ha":667,"x_min":0,"x_max":0,"o":"m 100 104 b 231 286 142 106 217 251 b 251 371 238 304 251 342 b 229 411 251 390 246 407 l 221 413 b 79 142 158 413 79 224 b 100 104 79 118 86 104 m 392 236 b 529 403 451 236 529 358 b 524 418 529 410 528 415 b 511 421 519 421 515 421 b 422 343 479 421 435 363 b 371 242 400 311 382 275 b 392 236 378 238 383 236 m 264 -6 b 193 25 236 -6 199 8 b 190 60 190 33 190 46 b 196 135 190 82 193 108 b 64 25 164 79 118 25 b -31 156 -3 26 -31 82 b 207 489 -31 293 69 489 l 208 489 b 289 450 243 489 272 476 l 300 475 b 333 492 307 486 319 492 b 389 463 357 492 383 479 b 476 490 415 479 444 490 l 482 490 b 578 410 535 489 578 463 l 578 407 b 400 186 575 308 475 186 b 360 201 385 186 371 192 b 354 147 356 185 354 165 b 415 32 354 94 371 42 b 432 31 421 31 426 31 b 461 35 440 31 450 32 b 667 294 510 53 579 111 b 678 303 669 300 674 303 b 686 300 681 303 683 301 b 693 289 690 299 693 293 b 692 282 693 288 693 285 b 467 7 599 88 521 26 b 417 0 447 1 431 0 l 401 0 b 293 33 354 1 318 14 l 293 10 b 264 -6 293 -1 281 -6 "},"ç":{"ha":394,"x_min":0,"x_max":0,"o":"m 31 -204 b -18 -186 10 -204 -8 -197 b -25 -164 -24 -181 -25 -172 b -14 -132 -25 -151 -19 -137 l -11 -131 b -3 -136 -7 -131 -3 -133 l -3 -137 b -6 -149 -3 -139 -6 -144 b 7 -161 -6 -153 -3 -158 l 24 -164 b 113 -94 61 -164 108 -132 l 113 -92 b 86 -72 113 -78 100 -72 b 42 -85 71 -72 53 -78 l 39 -85 b 10 -49 29 -85 10 -61 l 10 -46 b 56 14 14 -33 39 -4 b -31 161 -7 40 -31 96 b -4 293 -31 203 -21 249 b 206 490 29 385 104 490 b 236 488 215 490 226 489 b 311 394 290 476 311 435 b 288 324 311 368 301 340 b 250 303 278 311 264 303 b 224 313 242 303 232 306 b 217 322 219 315 217 319 l 219 331 b 253 410 225 340 253 388 b 244 422 253 417 250 421 l 240 422 b 93 221 201 422 122 325 b 83 146 88 200 83 172 b 136 33 83 96 97 46 b 158 29 143 31 150 29 b 189 35 168 29 178 31 b 394 294 238 53 307 111 b 406 303 397 300 401 303 b 414 300 408 303 411 301 b 421 289 418 299 421 294 b 419 282 421 286 421 285 b 196 7 328 89 250 26 b 146 0 176 1 160 0 l 131 0 b 86 4 114 0 99 1 l 51 -39 b 82 -35 61 -36 71 -35 b 132 -53 100 -35 119 -39 b 146 -97 142 -64 146 -81 b 139 -132 146 -108 143 -121 b 31 -204 119 -182 71 -204 "},"è":{"ha":394,"x_min":0,"x_max":0,"o":"m 119 236 b 258 403 179 236 258 357 b 251 418 258 410 256 415 b 240 421 247 421 244 421 b 150 343 208 421 164 363 b 100 242 129 311 111 275 b 119 236 107 238 113 236 m 131 0 b -31 161 13 4 -31 74 b -4 293 -31 203 -21 249 b 206 490 29 383 104 490 l 210 490 b 306 410 263 489 306 463 l 306 407 b 128 186 303 308 203 186 b 88 201 113 186 99 192 b 82 147 83 185 82 165 b 143 32 82 94 99 42 b 160 31 149 31 154 31 b 189 35 168 31 178 32 b 394 294 238 53 307 111 b 407 303 397 300 401 303 b 414 300 408 303 411 301 b 421 289 418 299 421 294 b 419 282 421 286 421 285 b 194 7 326 88 250 26 b 146 0 176 1 160 0 m 311 535 b 192 624 300 544 208 610 b 188 635 189 626 188 631 b 225 676 188 651 207 676 b 238 671 229 676 233 674 b 336 564 256 656 333 567 b 339 557 338 563 339 560 b 315 533 339 546 325 533 "},"é":{"ha":396,"x_min":0,"x_max":0,"o":"m 121 236 b 258 403 181 236 258 358 b 253 418 258 410 257 415 b 240 421 249 421 244 421 b 150 343 208 421 164 363 b 100 242 129 311 111 275 b 121 236 107 238 113 236 m 131 0 b -31 161 13 4 -31 74 b -4 293 -31 203 -21 249 b 207 490 31 383 104 490 l 211 490 b 307 410 264 489 307 463 l 307 407 b 129 186 304 308 204 186 b 89 201 114 186 100 192 b 83 147 85 185 83 165 b 144 32 83 94 100 42 b 161 31 150 31 156 31 b 189 35 169 31 179 32 b 396 294 239 53 308 111 b 407 303 399 300 403 303 b 415 300 410 303 413 301 b 422 289 419 299 422 293 b 421 282 422 288 422 285 b 194 7 328 88 250 26 b 146 0 176 1 160 0 m 196 563 b 178 588 186 563 178 576 b 182 597 178 592 179 594 b 301 679 185 600 281 668 l 311 682 b 343 639 328 682 343 657 b 335 622 343 632 340 625 b 199 564 317 613 213 569 l 196 563 "},"ê":{"ha":394,"x_min":0,"x_max":0,"o":"m 119 236 b 258 403 179 236 258 357 b 251 418 258 410 256 415 b 240 421 247 421 244 421 b 150 343 208 421 164 363 b 100 242 129 311 111 275 b 119 236 107 238 113 236 m 131 0 b -31 161 13 4 -31 74 b -4 293 -31 203 -21 249 b 206 490 29 383 104 490 l 210 490 b 306 410 263 489 306 463 l 306 407 b 128 186 303 308 203 186 b 88 201 113 186 99 192 b 82 147 85 185 82 167 b 143 32 82 94 97 42 b 161 31 149 31 154 31 b 189 35 169 31 178 32 b 394 294 238 53 307 111 b 407 303 397 300 401 303 b 414 300 408 303 411 301 b 421 289 418 299 421 294 b 419 282 421 286 421 285 b 194 7 326 88 250 26 b 146 0 176 1 160 0 m 310 554 b 286 565 300 556 292 556 b 268 622 279 582 271 608 b 190 561 244 601 211 574 l 189 561 b 175 575 182 561 175 568 b 179 583 175 578 176 581 b 272 678 197 600 250 657 b 289 683 276 682 283 683 b 307 672 297 683 306 681 b 324 567 308 656 315 586 l 325 561 b 310 554 325 556 318 554 "},"ë":{"ha":396,"x_min":0,"x_max":0,"o":"m 121 236 b 260 403 181 236 260 357 b 253 418 260 410 257 415 b 240 421 249 421 244 421 b 151 343 208 421 165 363 b 101 242 131 311 113 275 b 121 236 108 238 114 236 m 132 0 b -29 161 14 4 -29 74 b -3 293 -29 203 -19 249 b 207 490 31 383 104 490 l 211 490 b 307 410 264 489 307 463 l 307 407 b 129 186 304 308 204 186 b 89 201 114 186 100 192 b 83 147 85 185 83 165 b 144 32 83 94 100 42 b 161 31 150 31 156 31 b 190 35 169 31 179 32 b 396 294 239 53 308 111 b 408 303 399 300 403 303 l 415 300 b 422 289 419 299 422 294 b 421 282 422 286 422 285 b 196 7 328 88 251 26 b 147 0 178 1 161 0 m 163 564 b 119 599 129 564 119 582 b 121 613 119 604 119 608 b 176 663 131 643 142 663 l 183 663 b 218 626 208 661 218 646 b 215 607 218 619 217 614 b 165 564 206 579 188 564 m 315 558 b 269 593 279 558 269 576 b 271 607 269 597 269 603 b 326 657 281 638 292 657 l 333 657 b 368 622 357 656 368 642 b 364 601 368 615 367 608 b 315 558 354 574 338 558 "},"ì":{"ha":243,"x_min":0,"x_max":0,"o":"m 57 0 b -29 32 22 0 -14 4 b -42 93 -37 47 -42 68 b -28 194 -42 122 -36 157 b 61 474 -7 299 39 422 b 94 490 65 485 79 490 b 172 449 128 490 172 469 l 171 443 b 61 51 158 411 61 135 b 72 28 61 36 64 28 b 243 294 119 29 204 207 b 256 303 246 300 251 303 b 263 301 258 303 260 303 b 269 290 267 299 269 294 b 268 283 269 288 269 286 b 75 0 224 185 139 3 m 200 535 b 81 624 188 544 96 610 b 75 636 76 626 75 631 b 113 676 75 653 94 676 b 125 671 117 676 121 674 b 224 564 143 656 221 567 b 226 556 225 561 226 558 b 204 533 226 546 214 533 "},"í":{"ha":243,"x_min":0,"x_max":0,"o":"m 57 0 b -29 32 22 0 -14 4 b -42 94 -37 47 -42 68 b -29 194 -42 124 -36 158 b 60 474 -7 299 38 422 b 94 490 65 485 79 490 b 171 449 128 490 171 469 l 169 443 b 61 51 158 411 61 136 b 72 28 61 36 64 28 b 243 294 118 29 204 207 b 256 303 246 300 251 303 b 263 301 257 303 260 303 b 269 290 267 299 269 294 b 268 283 269 288 269 286 b 74 0 224 185 139 3 m 99 557 b 81 581 89 557 81 571 b 85 590 81 585 82 589 b 206 672 88 593 185 661 l 215 675 b 246 632 232 675 246 650 b 239 617 246 625 244 619 b 101 558 219 607 115 564 l 99 557 "},"î":{"ha":244,"x_min":0,"x_max":0,"o":"m 58 0 b -29 32 24 0 -12 4 b -40 90 -37 46 -40 67 b -28 194 -40 121 -36 157 b 61 474 -6 299 39 422 b 96 490 67 485 81 490 b 172 449 129 490 172 469 l 171 443 b 63 51 160 411 63 136 b 74 28 63 36 65 28 b 244 294 119 29 206 207 b 257 303 247 300 253 303 b 264 301 258 303 261 303 b 271 290 268 299 271 294 b 269 283 271 288 271 286 b 75 0 225 185 140 3 m 218 549 b 194 558 207 550 199 549 b 176 617 186 575 178 603 b 97 556 153 596 118 568 l 96 556 b 82 569 89 556 82 563 b 86 578 82 572 83 575 b 181 672 104 593 157 651 b 196 676 183 675 190 676 b 214 667 206 676 214 674 b 231 560 215 650 222 581 l 232 554 b 224 549 232 550 228 549 "},"ï":{"ha":244,"x_min":0,"x_max":0,"o":"m 58 0 b -29 32 24 0 -12 4 b -42 93 -37 47 -42 68 b -28 194 -42 122 -36 157 b 61 474 -6 299 39 422 b 96 490 67 485 79 490 b 172 449 129 490 172 469 l 171 443 b 63 51 160 411 63 136 b 74 28 63 36 65 28 b 244 294 119 29 204 207 b 257 303 247 300 251 303 b 263 301 258 303 260 303 b 271 289 267 299 271 294 b 269 283 271 288 271 286 b 75 0 225 185 140 3 m 82 556 b 35 592 44 556 35 574 b 36 604 35 596 35 600 b 94 656 46 636 57 656 l 99 656 b 135 619 124 654 135 639 b 131 599 135 613 133 606 b 82 556 121 571 103 556 m 232 550 b 185 586 194 550 185 568 b 186 599 185 590 185 594 b 244 650 196 631 207 650 l 249 650 b 285 614 274 649 285 633 b 281 593 285 607 283 600 b 232 550 271 565 253 550 "},"ð":{"ha":483,"x_min":0,"x_max":0,"o":"m 290 0 b 213 33 257 0 225 4 b 203 97 206 49 203 71 b 206 147 203 113 204 129 b 64 25 172 88 122 25 b -31 156 -3 26 -31 82 b 206 489 -31 293 69 489 l 207 489 b 286 456 242 489 269 479 l 310 519 l 231 519 b 217 538 224 519 217 526 b 221 553 217 542 218 547 b 243 572 225 563 235 572 b 329 574 272 574 300 574 b 368 668 346 617 360 650 b 406 685 372 681 388 685 b 490 646 442 685 490 665 l 490 642 l 465 571 l 522 571 b 535 553 531 569 535 563 b 532 539 535 549 535 544 b 510 519 526 529 518 519 l 446 519 b 308 68 394 381 318 168 l 307 42 b 310 28 307 33 307 28 b 340 46 321 28 338 43 b 483 294 388 94 450 224 b 496 303 486 300 492 303 b 501 301 497 303 499 303 b 510 289 507 299 510 294 b 508 283 510 288 510 286 b 358 26 472 207 414 82 b 311 0 342 10 326 0 m 100 104 b 235 285 143 106 221 249 b 251 368 240 299 251 338 b 222 413 251 393 244 413 b 79 142 157 411 79 224 b 100 104 79 119 85 104 "},"ñ":{"ha":476,"x_min":0,"x_max":0,"o":"m 282 -1 b 197 79 233 -1 197 11 l 197 92 b 281 419 201 185 279 404 b 275 428 281 425 279 428 b 261 419 272 428 265 424 b 197 347 247 408 213 367 b 75 163 144 278 96 197 b 44 13 58 101 44 44 b 28 0 43 4 38 0 l 18 0 b -61 39 -15 0 -60 7 b -26 211 -61 69 -46 136 b 56 474 0 310 36 424 b 89 490 60 485 72 490 b 169 449 124 490 169 469 l 168 443 b 107 268 157 417 111 279 b 176 364 128 299 151 332 b 283 475 204 401 244 449 b 335 490 300 486 317 490 b 399 431 369 490 399 469 l 397 414 b 311 53 378 319 311 133 b 318 28 311 38 313 28 l 319 28 b 372 75 336 29 350 40 b 476 294 396 115 428 183 b 488 303 479 300 483 303 b 503 289 496 303 503 297 b 501 283 503 289 503 286 b 396 61 453 172 421 103 b 321 0 368 17 347 1 l 282 -1 m 244 551 b 188 597 224 551 204 563 l 186 604 b 206 622 186 615 196 622 b 215 617 210 622 214 619 b 243 597 224 603 232 597 b 301 624 260 597 279 611 b 336 633 314 629 325 633 b 386 590 354 633 371 622 l 388 585 b 372 569 388 576 381 569 b 358 576 368 569 363 571 b 340 586 353 583 347 586 b 289 564 328 586 313 575 b 244 551 275 557 260 551 "},"ò":{"ha":418,"x_min":0,"x_max":0,"o":"m 106 43 b 229 221 160 43 214 178 b 199 286 207 238 199 263 b 250 374 199 326 224 367 b 218 406 246 392 238 406 l 213 406 b 72 104 146 394 72 206 b 101 43 72 69 81 46 l 106 43 m 96 0 b -28 160 8 0 -28 71 b 197 490 -28 303 68 490 b 232 486 208 490 219 489 b 318 342 299 469 318 407 b 300 226 318 301 310 258 l 304 226 b 419 294 349 226 396 251 b 431 303 422 300 426 303 b 439 300 432 303 436 301 b 444 290 443 299 444 294 b 443 282 444 288 444 285 b 301 199 415 228 357 199 l 290 199 b 96 0 260 111 192 0 m 335 526 b 329 528 332 526 331 526 b 210 615 317 536 225 601 b 204 628 206 618 204 622 b 242 668 204 644 224 668 b 254 663 246 668 250 665 b 353 556 272 647 350 558 l 356 549 b 335 526 356 538 343 526 "},"ó":{"ha":419,"x_min":0,"x_max":0,"o":"m 107 43 b 229 221 161 43 215 178 b 199 286 207 238 199 263 b 250 374 199 326 224 367 b 218 406 246 392 238 406 l 213 406 b 74 106 146 394 74 206 b 103 43 74 71 82 46 l 107 43 m 96 0 b -28 158 8 0 -28 71 b 197 490 -28 303 68 490 b 232 486 208 490 219 489 b 318 343 299 469 318 408 b 300 226 318 301 310 258 l 304 226 b 419 294 350 226 396 251 b 432 303 424 300 428 303 l 439 300 b 446 289 443 299 446 294 b 444 282 446 286 446 285 b 303 199 415 228 358 199 l 292 199 b 96 0 260 111 192 0 m 172 553 b 154 578 163 553 154 567 b 158 588 154 582 156 585 b 279 669 161 590 257 658 l 289 672 b 319 629 306 672 319 647 b 313 613 319 622 318 615 b 175 554 293 603 189 560 l 172 553 "},"ô":{"ha":419,"x_min":0,"x_max":0,"o":"m 107 43 b 229 221 161 43 215 178 b 199 286 207 238 199 263 b 250 374 199 326 224 367 b 218 406 246 392 238 406 l 213 406 b 72 106 146 394 72 206 b 103 43 72 71 82 46 l 107 43 m 96 0 b -28 158 8 0 -28 71 b 197 490 -28 303 68 490 b 232 486 208 490 219 489 b 318 343 299 469 318 408 b 300 226 318 301 310 258 l 304 226 b 419 294 350 226 396 251 b 432 303 424 300 428 303 l 439 300 b 446 289 443 299 446 294 b 444 282 446 286 446 285 b 303 199 415 228 357 199 l 292 199 b 96 0 260 111 192 0 m 289 539 b 265 549 279 540 271 539 b 247 607 258 565 250 593 b 169 546 224 586 190 558 l 167 546 b 154 558 161 546 154 553 b 158 567 154 561 156 564 b 251 663 176 583 229 640 b 268 667 256 665 261 667 b 286 657 276 667 285 664 b 303 550 288 640 294 571 l 303 546 b 294 539 303 540 299 539 "},"õ":{"ha":418,"x_min":0,"x_max":0,"o":"m 106 43 b 228 221 160 43 214 178 b 197 286 206 238 197 263 b 249 374 197 326 222 367 b 217 406 244 392 238 406 l 211 406 b 72 106 144 394 72 206 b 101 43 72 71 81 46 l 106 43 m 96 0 b -28 160 8 0 -28 71 b 197 490 -28 303 68 490 b 232 486 208 490 219 489 b 317 344 297 469 317 408 b 299 226 317 303 308 258 l 303 226 b 419 294 349 226 394 251 b 431 303 422 300 426 303 l 438 300 b 444 289 442 299 444 294 b 443 282 444 286 444 285 b 301 199 414 228 357 199 l 290 199 b 96 0 258 111 192 0 m 182 556 b 125 603 161 556 140 567 l 124 610 b 142 626 124 619 133 626 b 151 621 146 626 149 625 b 179 601 160 607 169 601 b 239 628 197 601 217 615 b 274 639 250 635 263 639 b 322 596 290 639 307 628 l 324 589 b 308 574 324 581 317 574 b 296 581 304 574 300 575 b 276 592 290 589 283 592 b 225 568 264 592 247 581 b 182 556 211 561 197 556 "},"ö":{"ha":418,"x_min":0,"x_max":0,"o":"m 106 43 b 228 221 160 43 214 178 b 197 286 206 238 197 263 b 249 374 197 326 222 367 b 217 406 244 392 238 406 l 211 406 b 72 106 144 394 72 206 b 101 43 72 71 81 46 l 106 43 m 94 0 b -29 158 7 0 -29 71 b 197 490 -29 301 68 490 b 232 486 208 490 219 489 b 317 344 297 469 317 408 b 299 226 317 303 308 258 l 303 226 b 418 294 349 226 394 251 b 431 303 422 300 426 303 l 438 300 b 444 289 442 299 444 294 b 443 282 444 286 444 285 b 301 199 414 228 356 199 l 290 199 b 94 0 258 111 190 0 m 156 550 b 110 585 119 550 110 568 b 111 599 110 590 110 594 b 167 650 121 631 132 650 l 174 650 b 208 614 197 649 208 633 b 204 593 208 608 207 600 b 156 550 194 565 178 551 m 303 546 b 258 582 267 546 258 565 l 260 593 b 317 644 271 625 282 644 l 324 644 b 358 610 347 643 358 629 b 354 589 358 603 357 596 b 306 546 344 560 328 546 "},"ø":{"ha":419,"x_min":0,"x_max":0,"o":"m 107 43 b 229 221 161 43 215 178 b 200 271 213 235 203 253 b 76 71 160 208 117 139 b 103 43 81 56 89 44 l 107 43 m 82 179 b 228 404 129 256 182 339 b 213 406 224 406 218 406 b 82 179 161 396 104 278 m 13 -18 b -14 4 0 -18 -14 -10 b -10 17 -14 8 -12 13 b 4 43 -6 25 -1 35 b -26 158 -17 72 -26 114 b 199 490 -26 303 69 490 b 233 486 210 490 221 489 b 272 467 249 482 261 475 b 275 471 274 468 275 469 b 290 478 279 475 285 478 b 321 451 304 478 321 464 b 317 442 321 447 319 444 l 304 425 b 318 344 314 401 318 374 b 300 226 318 301 310 258 l 304 226 b 419 294 350 226 396 251 b 432 303 424 300 428 303 l 439 300 b 446 289 443 299 446 294 b 444 282 446 286 446 285 b 303 199 415 228 357 199 l 292 199 b 96 0 260 111 192 0 b 42 11 75 0 57 4 l 29 -10 b 13 -18 26 -15 19 -18 "},"ù":{"ha":482,"x_min":0,"x_max":0,"o":"m 293 0 b 207 32 258 0 222 4 b 196 89 199 46 196 65 b 200 144 196 106 197 125 b 168 88 190 126 181 107 b 71 0 139 42 104 1 l 54 0 b -32 32 19 0 -17 4 b -43 89 -40 46 -43 65 b -29 194 -43 119 -37 157 b 63 474 -8 292 42 429 b 97 490 68 485 81 490 b 172 449 129 490 172 471 l 171 443 b 61 60 154 399 63 160 l 61 50 b 68 28 61 38 64 28 l 69 28 b 147 106 85 28 111 47 b 244 322 175 151 208 221 b 301 474 265 385 288 442 b 336 489 306 485 319 489 b 413 449 368 489 413 471 l 411 443 b 300 60 393 399 303 160 l 300 50 b 307 28 300 38 303 28 l 308 28 b 379 99 328 28 353 58 b 482 294 418 158 458 243 b 494 303 485 300 489 303 l 501 300 b 508 289 506 299 508 294 b 507 283 508 288 508 286 b 399 78 481 225 440 140 b 310 0 368 33 338 1 m 342 556 b 221 644 329 565 238 631 b 217 656 218 647 217 651 b 254 697 217 672 236 697 b 267 692 258 697 263 694 b 365 583 285 676 363 588 b 368 576 367 582 368 579 b 346 554 368 567 356 554 "},"ú":{"ha":483,"x_min":0,"x_max":0,"o":"m 294 0 b 207 32 260 0 224 4 b 196 90 200 46 196 67 b 200 144 196 107 197 125 b 169 88 192 126 181 107 b 72 0 140 42 104 1 l 54 0 b -32 32 19 0 -17 4 b -43 89 -40 46 -43 65 b -29 194 -43 119 -37 157 b 63 474 -7 292 42 429 b 99 490 68 485 82 490 b 174 449 131 490 174 471 l 172 443 b 61 60 154 399 64 160 b 69 28 61 42 63 28 l 71 28 b 147 106 86 28 113 47 b 246 322 176 151 210 221 b 303 474 267 385 289 442 b 336 489 307 485 321 489 b 413 449 369 489 413 471 l 411 443 b 301 60 393 399 303 160 l 301 49 b 308 28 301 36 303 28 l 310 28 b 379 99 328 28 354 58 b 483 294 418 158 460 243 b 494 303 486 300 490 303 l 503 300 b 510 289 507 299 510 293 b 508 283 510 288 510 286 b 399 78 482 225 442 140 b 311 0 369 33 339 1 m 213 554 b 194 578 204 554 194 568 b 199 588 194 582 196 586 b 318 669 201 590 297 658 l 328 672 b 360 629 344 672 360 647 b 351 614 360 622 357 617 b 215 554 333 603 229 561 "},"û":{"ha":482,"x_min":0,"x_max":0,"o":"m 293 0 b 207 32 258 0 222 4 b 196 89 199 46 196 65 b 200 144 196 106 197 125 b 168 88 190 126 181 107 b 71 0 139 42 104 1 l 54 0 b -33 32 19 0 -17 4 b -44 90 -40 46 -44 67 b -31 194 -44 121 -39 157 b 63 474 -8 292 42 429 b 97 490 68 485 81 490 b 172 449 129 490 172 471 l 171 443 b 61 60 154 399 63 160 l 61 49 b 68 28 61 36 63 28 l 69 28 b 147 106 85 28 111 47 b 244 322 175 151 208 221 b 301 474 265 385 288 442 b 336 489 306 485 319 489 b 413 449 368 489 413 471 l 411 443 b 300 60 393 399 303 160 b 307 28 300 42 301 28 l 308 28 b 379 99 328 28 353 58 b 482 294 418 158 458 243 b 494 303 485 300 489 303 l 501 300 b 508 289 506 299 508 294 b 507 283 508 288 508 286 b 399 78 481 225 440 140 b 310 0 368 33 338 1 m 319 538 b 296 549 308 539 300 539 b 278 606 288 564 281 592 b 199 544 254 585 221 557 l 197 544 b 185 557 190 544 185 550 b 189 567 185 561 186 564 b 282 661 207 582 260 640 b 299 665 286 664 292 665 b 317 656 307 665 315 663 b 332 549 317 639 325 569 l 333 544 b 324 538 333 539 329 538 "},"ü":{"ha":481,"x_min":0,"x_max":0,"o":"m 292 0 b 206 32 257 0 221 4 b 194 89 197 46 194 65 b 199 144 194 106 196 125 b 167 88 189 126 179 107 b 69 0 138 42 103 1 l 53 0 b -33 32 18 0 -18 4 b -44 89 -42 46 -44 65 b -31 194 -44 119 -39 157 b 61 474 -10 292 40 429 b 96 490 67 485 79 490 b 171 449 128 490 171 471 l 169 443 b 60 60 153 399 61 160 l 60 50 b 67 28 60 38 63 28 l 68 28 b 146 106 83 28 110 47 b 243 322 174 151 207 221 b 300 474 264 385 286 442 b 335 489 304 485 318 489 b 410 450 367 489 410 471 l 408 443 b 299 60 392 399 300 160 l 299 50 b 306 28 299 38 301 28 l 307 28 b 378 99 326 28 351 58 b 481 294 417 158 457 243 b 493 303 483 300 488 303 l 500 300 b 507 289 504 299 507 294 b 506 283 507 288 507 286 b 397 78 479 225 439 140 b 308 0 367 33 336 1 m 192 560 b 144 596 154 560 144 578 b 146 608 144 600 144 604 b 201 658 156 639 167 658 l 208 658 b 244 624 233 657 244 643 b 240 603 244 617 243 610 b 192 560 231 575 213 560 m 340 554 b 294 589 304 554 294 572 b 296 603 294 594 294 599 b 354 654 306 635 317 654 l 358 654 b 393 617 383 651 393 636 b 390 597 393 610 392 604 b 340 554 381 569 363 554 "},"ý":{"ha":468,"x_min":0,"x_max":0,"o":"m 217 568 b 197 593 207 568 197 582 b 201 603 197 597 199 600 b 322 685 206 606 301 674 l 332 688 b 364 644 349 688 364 663 b 356 628 364 638 361 631 b 219 569 338 618 233 575 l 217 568 m 25 -260 b -67 -165 -35 -256 -67 -218 l -65 -143 b 147 -18 -51 -56 21 -26 b 190 124 165 31 174 61 b 74 0 157 63 113 1 l 56 0 b -31 33 21 0 -15 4 b -42 90 -39 47 -42 67 b 64 474 -42 203 33 410 b 99 490 69 485 82 490 b 175 447 132 490 175 469 l 174 442 b 60 50 161 411 60 132 b 71 28 60 36 64 28 b 149 106 86 29 113 47 b 247 324 176 151 211 222 b 296 472 261 372 278 422 b 333 490 300 485 315 490 b 410 450 367 490 410 472 l 408 444 b 354 274 392 400 374 340 b 261 -11 325 181 293 76 b 358 82 300 10 331 40 b 468 294 396 135 428 206 b 481 303 471 300 476 303 b 494 290 488 303 494 297 b 493 283 494 289 494 286 b 382 67 453 193 419 121 b 247 -47 344 13 303 -25 b 35 -260 210 -143 151 -260 m 4 -199 b 138 -47 57 -199 106 -125 b -32 -131 22 -54 -18 -82 b -36 -158 -35 -140 -36 -150 b 4 -199 -36 -181 -26 -199 "},"þ":{"ha":410,"x_min":0,"x_max":0,"o":"m -53 -260 b -117 -228 -82 -260 -108 -254 l -118 -214 b -36 165 -118 -160 -82 -7 b 154 785 33 425 126 729 b 189 800 158 796 172 800 b 269 760 224 800 269 781 l 268 754 b 158 417 238 685 165 438 b 263 492 186 457 221 490 l 267 492 b 365 351 335 492 365 431 b 143 22 365 215 275 28 l 138 22 b 56 60 104 22 74 35 b -11 -242 18 -83 -11 -203 l -11 -244 b -24 -258 -11 -253 -17 -258 l -53 -260 m 124 99 b 254 369 186 103 254 283 b 232 413 254 396 247 413 l 231 413 b 103 228 186 408 115 267 b 88 146 99 213 88 176 b 121 99 88 119 96 99 l 124 99 "},"ÿ":{"ha":468,"x_min":0,"x_max":0,"o":"m 206 549 b 160 583 169 549 160 567 b 161 597 160 589 160 593 b 219 649 171 629 182 649 l 224 649 b 258 613 249 647 258 631 b 256 592 258 606 258 599 b 206 549 246 564 228 549 m 356 543 b 310 579 319 543 310 563 b 311 592 310 583 310 588 b 367 643 321 624 332 643 l 374 643 b 408 607 399 642 408 626 b 406 588 408 600 407 594 b 356 543 396 558 378 544 m 25 -260 b -67 -165 -35 -256 -67 -218 l -65 -143 b 147 -18 -51 -56 21 -26 b 190 124 165 31 174 61 b 74 0 157 63 113 1 l 56 0 b -31 33 21 0 -15 4 b -42 90 -39 47 -42 67 b 64 474 -42 203 33 410 b 99 490 69 485 82 490 b 175 447 132 490 175 469 l 174 442 b 60 50 161 411 60 132 b 71 28 60 36 64 28 b 149 106 86 29 113 47 b 247 324 176 151 211 222 b 296 472 261 372 278 422 b 333 490 300 485 315 490 b 410 450 367 490 410 472 l 408 444 b 354 274 392 400 374 340 b 261 -11 325 181 293 76 b 358 82 300 10 331 40 b 468 294 396 135 428 206 b 481 303 471 300 476 303 b 494 290 488 303 494 297 b 493 283 494 289 494 286 b 382 67 453 193 419 121 b 247 -47 344 13 303 -25 b 35 -260 210 -143 151 -260 m 4 -199 b 138 -47 57 -199 106 -125 b -32 -131 22 -54 -18 -82 b -36 -158 -35 -140 -36 -150 b 4 -199 -36 -181 -26 -199 "},"€":{"ha":464,"x_min":0,"x_max":0,"o":""},"":{"ha":1101,"x_min":0,"x_max":0,"o":"m 242 -67 b 4 139 117 -67 29 0 b 0 194 1 156 0 175 b 453 801 0 421 194 800 l 460 801 b 608 744 531 801 579 779 b 644 631 633 715 644 675 b 625 518 644 596 638 557 b 481 288 594 419 532 324 b 436 276 468 279 453 276 b 326 331 390 276 336 303 l 326 335 b 339 349 326 343 332 349 b 568 679 417 356 568 578 b 564 704 568 689 567 697 b 519 728 557 722 538 728 b 489 724 508 728 497 725 b 142 128 310 685 142 333 b 147 69 142 107 143 88 b 243 -1 157 25 193 1 l 258 -1 b 722 454 506 -1 629 263 b 804 490 732 475 772 490 b 844 464 826 490 844 483 b 853 314 844 431 847 376 b 999 486 904 378 956 440 b 1019 492 1001 490 1010 492 b 1046 478 1032 492 1046 488 b 1042 468 1046 475 1044 472 l 860 250 b 918 28 861 222 871 31 l 921 28 b 992 83 943 28 965 44 b 1101 296 1021 126 1056 194 b 1113 303 1104 301 1108 303 b 1128 289 1119 303 1128 297 b 1126 283 1128 289 1128 286 b 1014 68 1079 182 1044 113 b 918 0 979 18 953 1 b 804 32 882 0 824 1 b 769 142 792 51 779 92 b 658 7 717 76 672 24 b 638 -1 656 1 646 -1 b 608 14 624 -1 608 4 b 613 24 608 17 610 21 b 758 199 656 72 706 133 b 738 422 749 272 742 358 b 246 -67 642 203 525 -67 "},"":{"ha":976,"x_min":0,"x_max":0,"o":"m 243 -67 b 4 139 118 -67 31 0 b 0 193 1 156 0 174 b 454 801 0 418 196 800 l 461 801 b 610 744 532 801 581 779 b 646 631 635 715 646 675 b 626 518 646 596 639 557 b 482 288 596 419 533 324 b 438 276 469 279 454 276 b 328 331 392 276 338 303 l 328 335 b 340 349 328 343 333 349 b 569 681 417 356 569 581 b 565 704 569 689 568 697 b 521 728 558 722 539 728 b 490 724 510 728 499 725 b 143 128 311 685 143 333 b 149 69 143 107 144 88 b 244 -1 158 25 194 1 l 256 -1 b 593 208 389 -1 508 97 b 761 492 696 342 750 492 l 865 492 b 878 478 872 492 878 485 b 875 469 878 475 878 472 b 842 357 850 432 842 394 b 861 181 842 299 861 240 b 857 139 861 167 860 153 b 829 64 850 108 842 83 b 899 154 849 82 876 121 b 976 294 922 190 949 238 b 989 303 979 300 983 303 l 996 300 b 1003 289 1000 299 1003 294 b 1001 282 1003 286 1003 285 b 919 135 976 231 949 181 b 854 50 899 104 878 75 b 722 0 813 3 764 0 l 710 0 b 588 114 628 0 588 54 l 589 129 b 247 -67 507 18 390 -67 m 692 42 b 717 58 700 42 710 49 b 743 158 736 83 743 119 b 726 356 743 222 726 297 b 728 386 726 367 726 376 b 646 221 699 319 674 274 l 650 221 b 722 174 682 221 722 193 b 717 164 722 169 721 167 b 676 65 696 146 676 96 b 683 44 676 56 678 49 b 692 42 686 43 689 42 "},"":{"ha":1019,"x_min":0,"x_max":0,"o":"m 242 -67 b 4 139 117 -67 29 0 b 0 194 1 156 0 175 b 453 801 0 421 194 800 l 460 801 b 608 744 531 801 579 779 b 644 631 633 715 644 675 b 625 518 644 594 638 557 b 481 288 594 419 532 324 b 436 276 468 279 453 276 b 326 331 390 276 336 303 l 326 335 b 339 349 326 343 332 349 b 568 679 417 356 568 578 b 564 704 568 689 567 697 b 519 728 557 722 538 728 b 489 724 508 728 497 725 b 142 128 311 685 142 332 b 147 69 142 107 143 88 b 243 -1 157 25 193 1 l 256 -1 b 713 447 492 -1 642 275 b 694 486 700 456 694 469 b 708 546 694 507 703 531 b 742 560 713 556 726 560 b 775 543 758 560 775 554 l 775 539 l 754 478 b 849 490 789 479 819 490 l 853 490 b 928 428 888 490 922 464 l 929 418 b 903 324 929 397 918 367 b 836 67 879 260 836 136 l 839 43 b 854 26 842 31 847 26 b 906 69 872 26 899 58 b 1019 296 932 108 967 178 b 1031 303 1022 301 1026 303 b 1046 290 1039 303 1046 297 b 1044 283 1046 289 1046 286 b 929 54 992 165 957 94 b 856 1 901 13 881 1 l 839 1 b 742 33 807 1 757 3 b 731 89 735 47 731 67 b 825 442 731 193 800 367 b 758 432 797 439 779 432 b 738 435 753 432 744 432 b 246 -67 654 213 525 -67 "},"":{"ha":499,"x_min":0,"x_max":0,"o":"m 15 0 b 1 8 10 0 4 3 l 0 14 b 8 26 0 19 3 25 b 190 449 31 38 151 346 b 174 488 178 458 174 472 b 188 546 174 506 181 526 b 221 560 192 556 206 560 b 256 543 238 560 256 554 l 233 478 b 328 490 269 479 300 490 l 332 490 b 408 428 367 490 401 464 l 408 421 b 382 324 408 400 399 368 b 315 67 358 260 315 136 l 318 43 b 333 26 321 31 326 26 b 385 69 351 26 378 58 b 499 296 411 108 446 178 b 511 303 501 301 506 303 b 525 290 518 303 525 297 b 524 283 525 289 525 286 b 408 54 471 165 436 94 b 336 1 381 13 360 1 l 319 1 b 221 33 286 1 238 3 b 210 89 214 47 210 67 b 306 442 210 193 279 367 b 240 433 283 439 261 433 b 215 436 232 433 224 433 b 21 1 174 325 56 18 l 15 0 "},"":{"ha":389,"x_min":0,"x_max":0,"o":"m 122 -1 b 0 113 39 -1 0 53 b 32 206 0 144 11 178 b 61 219 39 215 50 219 b 133 172 93 219 133 190 b 129 163 133 168 132 165 b 88 65 107 144 88 94 b 96 43 88 54 90 47 b 104 40 99 42 101 40 b 129 57 113 40 122 47 b 154 151 149 83 154 115 b 138 356 154 214 138 286 b 146 432 138 382 139 407 b 185 489 153 461 174 489 l 276 490 b 290 476 285 490 290 483 b 288 468 290 474 289 471 b 254 356 263 431 254 393 b 272 182 254 297 272 240 b 268 138 272 168 271 153 b 242 63 263 107 254 82 b 311 153 260 81 289 119 b 389 294 335 189 361 236 b 400 303 392 300 396 303 b 415 288 407 303 415 296 l 414 282 b 331 133 388 229 361 179 b 267 49 311 103 289 74 b 135 -1 224 1 175 -1 "},"":{"ha":492,"x_min":0,"x_max":0,"o":"m 28 -1 b 0 14 14 -1 0 4 b 4 24 0 17 1 19 b 149 199 46 72 96 133 b 128 461 139 278 129 382 b 179 490 128 476 151 489 l 190 490 b 235 464 213 490 235 483 l 243 314 b 389 486 294 378 347 440 b 410 492 392 490 400 492 b 438 479 422 492 438 488 b 432 468 438 475 436 472 l 250 250 b 308 28 253 222 263 31 l 311 28 b 382 83 335 28 356 44 b 492 296 411 126 446 194 b 503 303 494 301 499 303 b 518 289 510 303 518 297 b 517 283 518 289 518 286 b 404 68 471 182 435 113 b 308 0 371 18 343 1 b 194 32 274 0 214 1 b 160 142 182 51 169 92 b 49 7 107 76 63 24 b 28 -1 46 1 36 -1 "},"":{"ha":535,"x_min":0,"x_max":0,"o":"m 103 -260 b 0 -164 43 -260 0 -225 l 1 -147 b 210 -44 11 -60 124 -58 b 236 54 224 -14 236 24 b 190 117 236 85 224 110 b 178 129 182 118 178 124 b 190 143 178 136 183 142 b 322 313 249 153 299 235 b 340 403 331 344 340 376 b 276 464 340 439 325 464 l 274 464 b 196 413 244 464 218 442 b 185 407 193 408 189 407 b 176 410 182 407 179 408 b 169 419 172 411 169 415 b 174 429 169 422 171 425 b 275 492 200 464 233 490 l 296 492 b 439 382 394 492 439 456 b 422 289 439 356 433 325 b 286 133 403 222 358 157 b 347 38 324 117 347 83 b 342 -1 347 26 346 13 b 425 82 374 18 400 46 b 535 296 461 136 493 207 b 546 303 538 301 542 303 b 561 289 553 303 561 297 l 560 283 b 447 67 518 193 485 121 b 331 -37 415 21 375 -15 b 106 -260 303 -131 236 -258 m 64 -196 b 100 -187 75 -196 88 -193 b 194 -74 135 -172 172 -136 b 29 -151 119 -86 38 -89 l 29 -160 b 64 -196 29 -186 44 -196 "},"":{"ha":783,"x_min":0,"x_max":0,"o":"m 108 43 b 231 222 163 43 217 179 b 200 288 208 239 200 264 b 251 375 200 328 225 367 b 221 406 247 392 240 406 b 75 106 150 400 75 218 b 108 43 75 64 85 44 m 97 0 b -26 160 10 0 -26 71 b 199 492 -26 303 69 492 b 233 488 210 492 222 490 b 319 347 300 469 319 411 b 301 226 319 307 311 263 l 303 226 b 475 447 388 226 451 381 b 458 486 463 457 458 471 b 472 546 458 506 465 526 b 506 560 476 556 490 560 b 539 543 522 560 539 554 l 539 539 l 518 478 b 611 490 553 479 583 490 b 693 418 656 489 688 467 b 600 67 693 365 600 178 b 618 26 603 40 603 26 b 669 69 636 26 663 58 b 783 296 696 108 731 178 b 794 303 786 301 790 303 b 810 289 801 303 810 297 b 808 283 810 289 810 286 b 619 1 700 42 667 1 l 603 1 b 506 33 569 1 521 3 b 494 90 497 47 494 67 b 589 442 494 194 564 368 b 519 432 568 439 542 432 l 500 435 b 304 200 465 349 407 200 l 293 200 b 97 0 261 113 193 0 "},"":{"ha":485,"x_min":0,"x_max":0,"o":"m 290 -1 b 215 33 258 -1 228 6 b 204 96 207 49 204 69 b 210 161 204 115 206 138 b 142 51 188 121 165 81 b 72 0 126 32 99 0 l 49 -1 b -26 33 17 -1 -14 6 b -36 96 -33 49 -36 71 b 72 524 -36 203 21 385 b -4 525 40 525 14 525 b -18 539 -12 525 -18 531 b -4 553 -18 546 -11 553 l 82 551 b 129 668 100 599 117 639 b 164 685 133 681 147 685 b 250 643 200 685 250 663 l 213 550 l 322 549 b 369 668 340 597 357 639 b 404 685 374 681 388 685 b 492 643 442 685 492 663 l 490 639 b 453 546 476 608 464 578 b 521 544 479 546 503 546 b 535 531 529 544 535 539 b 521 518 535 524 528 518 b 442 519 499 518 472 518 b 324 129 394 392 354 264 b 307 38 321 122 307 63 b 311 26 307 31 308 26 b 364 72 328 26 356 60 b 486 294 407 131 457 233 b 499 303 489 300 493 303 b 513 289 506 303 513 297 b 511 283 513 289 513 286 b 382 51 479 217 431 113 b 314 0 367 32 340 0 l 290 -1 m 71 26 b 124 72 86 26 114 60 b 231 265 160 122 201 204 b 311 521 251 350 282 442 b 203 522 275 522 239 522 b 82 129 154 394 114 263 b 67 38 81 122 67 63 b 71 26 67 31 68 26 "},"":{"ha":746,"x_min":0,"x_max":0,"o":"m 107 42 b 229 221 161 42 215 178 b 199 286 207 238 199 263 b 250 374 199 326 224 365 b 221 404 246 390 239 404 l 213 404 b 74 104 146 394 74 206 b 103 42 74 69 82 44 l 107 42 m 479 -1 b 358 113 397 -1 358 53 b 390 206 358 144 369 178 b 419 219 397 215 408 219 b 490 172 451 219 490 190 b 486 163 490 168 489 165 b 446 64 465 144 446 94 b 453 43 446 54 447 47 b 461 40 456 42 458 40 b 486 57 469 40 479 47 b 511 156 506 82 511 117 b 494 361 511 222 494 300 b 496 390 494 371 494 381 b 300 199 456 317 396 199 l 292 199 b 97 -1 260 111 193 -1 b -26 158 10 -1 -26 69 b 199 490 -26 303 69 490 b 233 486 210 490 221 489 b 318 343 299 468 318 407 b 300 225 318 301 310 258 b 472 406 379 225 442 346 b 531 490 494 450 518 490 l 633 490 b 647 476 642 490 647 483 b 644 468 647 474 647 471 b 611 356 619 431 611 393 b 631 179 611 297 631 239 b 626 138 631 165 629 151 b 599 63 619 107 611 82 b 668 153 617 81 646 119 b 746 294 692 189 718 236 b 758 303 749 300 753 303 b 772 289 765 303 772 297 b 771 282 772 288 772 285 b 689 133 744 229 718 179 b 624 49 668 103 647 74 b 492 -1 582 1 533 -1 "},"":{"ha":410,"x_min":0,"x_max":0,"o":"m 100 103 b 232 285 143 104 218 249 b 251 369 239 301 251 340 b 231 410 251 389 246 404 l 222 411 b 81 139 160 411 81 221 b 100 103 81 117 86 103 m 299 -3 b 206 31 261 -3 222 0 b 194 89 197 44 194 65 b 197 133 194 103 196 117 b 65 24 164 78 121 24 l 64 24 b -31 153 -3 25 -31 81 b 207 488 -31 290 69 488 l 208 488 b 290 449 243 486 274 475 l 300 474 b 335 488 306 483 319 488 b 410 447 367 488 410 468 l 408 440 b 303 101 393 401 322 215 b 299 50 301 93 299 68 b 303 28 299 39 299 31 b 307 14 306 25 307 19 l 307 8 b 299 -3 307 3 303 -3 "},"":{"ha":360,"x_min":0,"x_max":0,"o":"m 19 0 b -58 51 -28 0 -54 8 b 128 669 -58 158 92 588 b 165 686 132 681 147 686 b 250 644 201 686 250 667 l 249 639 b 171 439 238 614 204 533 b 261 490 197 471 225 490 b 360 350 329 490 360 429 b 132 22 360 208 268 25 b 53 57 100 22 71 33 b 33 0 46 26 54 0 m 118 99 b 249 368 181 101 249 282 b 226 413 249 394 242 413 b 86 186 169 411 101 239 b 82 153 83 178 82 165 b 115 99 82 126 89 99 l 118 99 "},"":{"ha":315,"x_min":0,"x_max":0,"o":"m 133 -3 b -28 160 15 1 -28 72 b -1 292 -28 201 -18 247 b 210 489 33 382 107 489 b 239 486 219 489 229 488 b 315 393 294 475 315 433 b 253 300 315 347 288 300 b 226 310 244 300 236 303 b 221 322 222 313 221 317 b 222 329 221 325 221 326 b 256 407 228 338 256 385 b 247 419 256 414 253 418 l 243 419 b 96 218 204 419 125 322 b 86 143 90 197 86 169 b 139 31 86 93 100 44 b 161 28 146 28 154 28 b 276 96 206 28 249 67 b 290 103 281 101 286 103 b 299 100 293 103 296 101 b 303 92 301 99 303 94 b 297 78 303 88 301 83 b 142 -3 256 26 207 -3 "},"":{"ha":490,"x_min":0,"x_max":0,"o":"m 306 -3 b 211 32 267 -3 226 -1 b 201 90 204 47 201 67 b 206 144 201 107 203 125 b 64 24 171 85 122 24 l 63 24 b -32 153 -4 25 -32 81 b 206 488 -32 290 68 488 l 207 488 b 286 453 240 486 269 476 b 367 667 319 550 353 633 b 406 683 372 679 388 683 b 490 643 442 683 490 664 l 490 640 b 307 67 475 594 322 210 l 306 47 b 308 25 306 35 307 28 b 313 11 311 19 313 17 b 306 -3 313 4 310 -3 m 99 103 b 233 282 142 104 219 246 b 251 367 239 296 251 336 b 222 410 251 390 244 410 l 221 410 b 78 140 157 410 78 222 b 99 103 78 117 83 103 "},"":{"ha":306,"x_min":0,"x_max":0,"o":"m 119 235 b 257 401 179 235 257 357 b 251 417 257 408 256 414 b 240 419 247 418 244 419 b 149 340 208 419 163 360 b 99 240 128 308 110 272 b 119 235 106 236 111 235 m 129 -3 b -32 160 11 1 -32 72 b -6 292 -32 201 -22 247 b 206 489 29 382 103 489 l 210 489 b 306 407 263 488 306 460 l 306 404 b 126 185 303 306 201 185 b 88 199 113 185 99 189 b 82 144 83 182 82 164 b 143 29 82 93 99 39 l 158 28 b 272 97 204 28 243 68 b 285 103 276 101 281 103 b 294 99 289 103 292 101 l 297 90 b 293 81 297 86 296 82 b 138 -3 253 26 203 -3 "},"":{"ha":260,"x_min":0,"x_max":0,"o":"m -26 -261 b -107 -229 -57 -261 -90 -260 b -112 -194 -111 -222 -112 -210 b -19 238 -112 -93 -42 161 b -12 263 -17 246 -14 254 l -33 263 b -57 283 -46 263 -57 272 l -57 286 b -33 311 -57 300 -47 311 l 3 311 b 131 668 53 476 104 621 b 168 683 139 679 153 683 b 250 642 204 683 250 661 l 249 638 b 128 311 204 533 163 421 l 235 311 b 260 286 249 311 260 300 b 236 263 260 274 249 263 l 132 263 b 157 118 150 222 157 171 b 140 -33 157 67 150 14 b -15 -261 122 -111 74 -261 m -1 -232 b 114 -24 58 -215 100 -89 b 129 121 122 19 129 71 b 108 247 129 167 124 211 l 99 211 b -3 -222 72 121 -3 -162 l -1 -232 "},"":{"ha":406,"x_min":0,"x_max":0,"o":"m 100 103 b 232 286 142 104 218 247 b 250 371 238 300 250 340 b 224 410 250 393 244 410 l 222 410 b 79 140 158 410 79 222 b 100 103 79 117 85 103 m 21 -262 b -69 -171 -33 -260 -69 -225 l -69 -165 b -57 -153 -69 -157 -62 -153 l -54 -153 b -42 -165 -47 -153 -42 -157 b 0 -201 -40 -187 -24 -201 l 1 -201 b 185 114 106 -201 163 33 b 67 24 153 67 114 24 l 64 24 b -31 153 -3 25 -31 81 b 207 488 -31 290 69 488 l 208 488 b 285 454 240 486 267 476 b 294 476 288 461 290 472 b 332 489 304 485 318 489 b 406 447 367 489 406 467 l 404 443 b 350 272 388 399 369 338 b 257 -14 321 178 281 56 b 31 -262 221 -118 158 -262 "},"":{"ha":403,"x_min":0,"x_max":0,"o":"m 317 -3 b 201 75 249 -3 201 -3 l 201 89 b 283 417 206 182 283 401 l 283 419 b 279 426 283 424 282 426 b 264 418 275 426 268 422 b 201 346 243 397 222 372 b 79 160 147 275 99 194 b 47 11 60 94 47 40 b 33 -3 47 4 40 -1 l 22 -3 b -57 33 -12 -3 -50 3 b -58 51 -58 38 -58 44 b -12 258 -58 92 -40 169 b 128 667 35 418 104 613 b 163 683 132 678 146 683 b 244 640 197 683 244 663 l 243 635 b 111 265 228 594 163 424 b 181 363 132 297 156 331 b 288 472 208 400 249 446 b 339 489 304 483 322 489 b 403 429 374 489 403 467 l 401 413 b 315 51 382 317 315 132 b 319 29 315 38 317 32 b 326 15 325 26 326 21 l 326 11 b 317 -3 326 4 322 -3 "},"":{"ha":240,"x_min":0,"x_max":0,"o":"m 68 -3 b -29 31 29 -3 -11 0 b -42 90 -37 46 -42 67 b -28 193 -42 121 -36 156 b 61 472 -7 296 39 419 b 94 488 65 483 79 488 b 172 446 128 488 172 468 l 171 440 b 61 49 158 410 61 132 b 69 25 61 35 64 26 b 78 11 76 24 78 17 b 68 -3 78 4 75 -3 m 176 539 b 108 574 149 539 108 556 b 133 668 108 597 126 650 b 165 685 138 681 151 685 b 240 642 197 685 240 663 b 238 632 240 638 239 635 b 200 549 229 619 210 569 b 176 539 197 542 188 539 "},"":{"ha":238,"x_min":0,"x_max":0,"o":"m -212 -262 b -303 -174 -264 -260 -303 -226 l -303 -165 b -287 -153 -303 -158 -297 -153 b -274 -165 -282 -153 -275 -156 b -233 -201 -271 -187 -257 -201 l -232 -201 b -89 -3 -151 -201 -110 -71 b 58 469 -42 151 3 317 b 97 488 63 482 78 488 b 172 449 131 488 172 471 l 171 443 b 24 -14 118 293 81 136 b -203 -262 -15 -117 -71 -262 m 172 539 b 106 574 146 539 106 556 b 132 668 106 597 124 650 b 164 685 136 681 149 685 b 238 642 194 685 238 663 b 235 632 238 638 236 635 b 196 549 226 619 206 569 b 172 539 193 542 183 539 "},"":{"ha":421,"x_min":0,"x_max":0,"o":"m 314 -3 b 217 21 263 -1 231 -4 b 179 226 192 64 189 172 b 161 250 176 242 169 250 b 143 242 156 250 150 247 b 78 163 131 231 82 169 b 44 11 58 96 46 40 l 44 10 b 32 -3 44 3 39 -1 l 21 -3 b -60 33 -14 -3 -51 3 l -61 49 b -14 258 -61 88 -42 168 b 126 667 33 418 103 613 b 161 683 131 678 144 683 b 243 640 196 683 243 663 l 242 635 b 114 276 226 596 164 431 b 321 488 158 342 261 476 l 336 489 b 414 468 361 489 396 478 b 421 457 418 465 421 461 b 407 442 421 449 415 442 l 399 443 b 197 297 360 443 231 329 l 217 299 b 254 293 232 299 246 297 b 318 26 304 268 283 32 b 324 11 322 25 324 18 b 314 -3 324 4 321 -3 "},"":{"ha":246,"x_min":0,"x_max":0,"o":"m 67 -3 b -28 32 28 -3 -12 -1 b -37 92 -35 47 -37 67 b 128 667 -37 260 106 615 b 165 683 135 679 150 683 b 246 642 201 683 246 660 l 246 638 b 68 67 229 592 83 210 l 67 40 b 69 25 67 31 67 26 b 75 11 72 25 75 18 b 67 -3 75 6 74 -3 "},"":{"ha":653,"x_min":0,"x_max":0,"o":"m 572 -3 b 450 79 501 -1 450 -6 l 450 89 b 533 417 456 182 533 401 b 528 426 533 424 531 426 b 514 418 524 426 518 422 b 451 346 493 397 472 372 b 328 158 397 275 347 193 b 297 15 311 94 297 38 l 297 13 b 281 -3 297 1 289 -1 l 265 -3 b 192 68 214 -3 192 21 l 193 88 b 279 413 201 182 264 358 b 281 422 281 417 281 419 b 278 428 281 425 281 428 b 261 418 274 428 268 425 b 197 346 239 400 201 351 b 74 160 143 275 94 194 b 43 11 57 99 44 43 b 28 -3 43 1 36 -1 l 19 -3 b -61 38 -15 -3 -61 6 l -61 39 b 56 472 -61 121 32 410 b 88 488 58 483 72 488 b 168 446 121 488 168 468 l 167 440 b 107 264 144 382 125 324 b 175 363 126 296 150 331 b 282 472 204 400 244 446 b 333 489 299 483 317 489 b 397 429 368 489 397 467 b 396 413 397 425 397 418 b 356 256 390 385 371 314 b 429 363 376 289 403 326 b 538 472 458 400 499 446 b 588 489 553 483 571 489 b 653 429 622 489 653 467 l 651 413 b 565 51 632 317 565 132 b 574 25 565 35 567 25 b 581 11 578 25 581 15 b 572 -3 581 4 579 -3 "},"":{"ha":399,"x_min":0,"x_max":0,"o":"m 289 -3 b 196 79 235 -3 196 6 l 196 89 b 279 417 201 182 279 401 b 274 426 279 424 276 426 b 260 418 269 426 264 422 b 197 346 247 407 213 365 b 75 161 143 276 94 196 b 43 11 57 99 44 43 b 28 -3 43 1 36 -1 l 19 -3 b -61 38 -15 -3 -61 6 b -26 208 -61 67 -47 135 b 56 472 0 308 36 421 b 89 488 60 483 72 488 b 168 447 122 488 168 468 l 167 440 b 107 265 156 414 111 278 b 175 363 128 297 151 331 b 282 472 204 400 244 446 b 333 489 299 483 317 489 b 399 429 368 489 399 467 l 397 413 b 311 51 378 317 311 132 b 317 25 311 38 313 28 b 325 11 322 24 325 17 b 315 -3 325 4 321 -3 "},"":{"ha":317,"x_min":0,"x_max":0,"o":"m 106 40 b 228 218 160 40 214 176 b 251 346 233 236 251 299 b 218 403 251 378 243 403 l 211 403 b 71 103 144 392 71 204 b 101 40 71 68 81 43 l 106 40 m 94 -3 b -29 157 7 -3 -29 68 b 196 489 -29 300 67 489 b 231 485 207 489 219 488 b 317 342 296 467 317 407 b 290 197 317 290 304 235 b 94 -3 258 110 190 -3 "},"":{"ha":365,"x_min":0,"x_max":0,"o":"m -49 -261 b -110 -229 -76 -261 -103 -256 b -112 -206 -111 -224 -112 -215 b 60 474 -112 -76 21 390 b 100 490 69 488 81 490 b 176 449 135 490 176 467 l 172 433 b 267 490 200 468 229 490 b 365 350 335 490 365 429 b 138 22 365 210 274 25 b 56 61 104 22 74 35 b -10 -240 28 -40 -10 -183 l -10 -246 b -24 -260 -10 -253 -15 -258 l -49 -261 m 125 99 b 254 368 188 101 254 282 b 232 413 254 394 247 413 b 106 232 189 411 118 269 b 89 146 100 217 89 178 b 122 99 89 119 96 99 l 125 99 "},"":{"ha":411,"x_min":0,"x_max":0,"o":"m 190 -262 b 119 -231 160 -262 128 -257 b 117 -207 118 -225 117 -217 b 181 110 117 -142 154 8 b 65 24 150 64 111 24 l 63 24 b -32 153 -4 25 -32 81 b 206 488 -32 290 68 488 l 207 488 b 286 451 240 486 269 475 b 299 476 289 460 294 474 b 335 488 308 485 321 488 b 411 446 369 488 411 464 l 410 440 b 225 -232 356 315 233 -97 b 232 -244 229 -233 232 -239 l 232 -249 b 219 -261 232 -254 229 -260 l 190 -262 m 99 103 b 153 147 113 103 132 121 b 231 285 181 186 211 238 b 250 372 236 300 250 340 b 224 410 250 393 243 410 l 222 410 b 78 140 157 410 78 222 b 99 103 78 117 83 103 "},"":{"ha":281,"x_min":0,"x_max":0,"o":"m 149 -3 b 93 79 115 3 93 33 b 176 438 93 194 163 397 b 108 429 157 436 131 429 l 88 432 b 22 281 65 378 54 350 b 11 272 19 275 15 272 b -4 286 4 272 -4 279 l -3 292 b 63 444 31 365 40 388 b 46 483 50 454 46 468 b 60 542 46 501 53 524 b 94 557 64 553 79 557 b 126 540 111 557 126 551 l 126 536 b 106 475 121 518 110 485 b 199 488 140 476 171 488 l 203 488 b 279 425 239 488 274 461 l 281 415 b 254 321 281 394 269 364 b 188 64 231 257 188 133 l 190 40 b 201 25 193 31 197 25 b 208 10 207 24 208 17 b 199 -3 207 3 204 -3 "},"":{"ha":226,"x_min":0,"x_max":0,"o":"m 57 -3 b -64 111 -25 -3 -64 51 b -32 204 -64 143 -53 176 b -3 218 -25 214 -14 218 b 69 171 29 218 69 189 b 64 161 69 167 68 164 b 24 63 43 142 24 92 b 31 42 24 53 26 44 b 39 39 33 40 36 39 b 64 54 47 39 57 46 b 89 153 83 79 89 114 b 72 358 89 219 72 297 b 74 388 72 368 72 378 l 24 281 b 11 272 21 275 17 272 b -3 286 4 272 -3 279 b -1 293 -3 288 -3 290 b 108 489 11 318 83 489 l 213 489 b 226 475 221 489 226 482 b 224 467 226 472 225 469 b 192 354 199 429 192 392 b 208 178 192 296 208 238 b 57 -3 208 86 158 -3 "},"":{"ha":128,"x_min":0,"x_max":0,"o":"m 72 -3 b -24 32 32 -3 -8 -3 b -35 94 -31 47 -35 69 b 74 521 -35 203 22 383 l -3 524 b -17 538 -11 524 -17 531 b -4 550 -17 544 -12 550 l -3 550 b 83 549 22 550 53 550 b 132 667 101 596 119 638 b 167 683 136 679 150 683 b 253 642 203 683 253 661 l 251 638 b 214 544 239 608 226 578 b 283 543 239 544 263 544 b 297 529 293 543 297 536 b 285 517 297 522 293 517 l 283 517 b 203 518 260 517 232 517 b 85 128 160 389 113 246 b 69 38 83 121 69 63 b 74 25 69 31 71 25 b 79 13 78 25 79 19 b 72 -3 79 6 78 -3 "},"":{"ha":411,"x_min":0,"x_max":0,"o":"m 306 -3 b 206 31 267 -3 224 -1 b 194 90 199 44 194 65 b 199 142 194 106 196 124 b 71 -3 176 97 121 0 l 53 -3 b -33 31 18 -3 -18 1 b -44 88 -42 44 -44 64 b -31 193 -44 118 -39 154 b 61 472 -10 289 40 428 b 96 488 67 483 81 488 b 172 447 129 488 172 468 l 171 440 b 60 57 153 396 63 157 b 68 25 60 39 61 25 b 146 103 85 26 110 46 b 244 319 175 150 207 218 b 300 472 264 383 286 440 b 333 488 304 483 318 488 b 411 446 367 488 411 468 l 410 440 b 299 57 392 396 301 157 b 307 25 299 39 300 26 b 314 11 311 25 314 18 b 306 -3 314 4 311 -3 "},"":{"ha":394,"x_min":0,"x_max":0,"o":"m -15 -4 b -43 11 -29 -4 -43 1 b -39 21 -43 14 -42 17 b 106 196 4 69 53 131 b 86 419 97 269 90 356 l 25 281 b 13 272 22 275 18 272 b -3 286 6 272 -3 279 l -1 292 b 71 451 18 336 50 408 b 153 488 81 472 121 488 b 193 461 175 488 193 481 b 200 311 193 428 196 374 b 346 483 253 375 304 436 b 365 489 349 488 357 489 b 394 475 379 489 394 485 b 390 465 394 472 393 469 l 208 247 b 267 25 210 219 219 28 b 276 11 272 25 276 18 b 265 -3 275 4 272 -3 l 172 -3 b 117 138 136 -1 119 118 b 7 4 63 72 19 21 b -15 -4 3 -1 -6 -4 "},"":{"ha":410,"x_min":0,"x_max":0,"o":"m 24 -262 b -67 -171 -29 -260 -67 -225 l -67 -165 b -54 -153 -65 -157 -60 -153 l -51 -153 b -37 -164 -44 -153 -37 -157 b 4 -201 -37 -187 -21 -201 l 6 -201 b 190 122 113 -201 167 38 b 72 -3 157 60 111 0 l 56 -3 b -32 31 21 -3 -15 1 b -43 86 -39 44 -43 63 b 64 472 -43 199 33 407 b 99 488 69 483 82 488 b 174 447 131 488 174 468 l 172 440 b 60 49 161 410 60 132 b 71 25 60 33 63 25 b 149 103 86 26 113 46 b 246 321 176 150 210 219 b 294 469 261 369 276 419 b 333 488 299 482 314 488 b 410 449 367 488 410 471 l 408 443 b 353 272 392 399 374 338 b 247 -50 326 182 282 38 b 33 -262 208 -144 151 -262 "},"":{"ha":338,"x_min":0,"x_max":0,"o":"m 4 -265 b -101 -172 -47 -265 -101 -231 l -101 -165 b -89 -153 -100 -157 -94 -153 b -76 -165 -83 -153 -78 -154 b -39 -201 -72 -189 -60 -201 b -1 -193 -28 -201 -15 -199 b 106 -61 61 -165 81 -114 b 138 49 118 -35 138 11 b 89 111 138 79 125 104 b 76 125 81 113 76 119 b 89 139 76 132 82 138 b 221 308 147 149 197 229 b 239 399 229 339 239 372 b 175 460 239 433 224 460 l 172 460 b 26 281 104 458 54 342 b 15 272 24 275 19 272 b 0 286 7 272 0 279 b 1 293 0 288 0 290 b 174 488 40 374 83 483 l 193 488 b 338 376 293 488 338 450 b 321 285 338 350 332 319 b 185 129 301 217 257 151 b 242 32 228 111 242 74 b 229 -42 242 7 238 -18 b 4 -265 201 -135 135 -262 "},"":{"ha":793,"x_min":0,"x_max":0,"o":"m 108 44 b 232 222 163 44 217 179 b 201 288 210 239 201 264 b 253 375 201 328 226 368 b 221 407 249 393 240 407 l 215 407 b 75 107 149 396 75 207 b 104 44 75 72 83 47 l 108 44 m 390 0 b 361 14 376 0 361 4 b 365 24 361 17 363 21 b 511 199 408 72 458 133 b 490 424 501 272 494 358 b 297 200 451 333 385 200 l 293 200 b 99 1 263 113 194 1 b -25 161 11 1 -25 72 b 200 492 -25 304 71 492 b 235 488 211 492 222 490 b 321 343 301 471 321 408 b 303 228 321 303 313 260 b 475 456 383 233 451 397 b 556 492 483 476 524 492 b 597 465 579 492 597 485 b 606 314 597 431 600 378 b 751 486 657 378 708 440 b 772 493 754 490 763 493 b 800 479 785 493 800 489 b 794 469 800 476 799 474 l 613 250 b 671 29 615 222 624 31 b 683 15 681 29 683 22 b 671 1 683 8 679 1 b 557 33 604 1 576 3 b 522 142 544 53 532 93 l 411 7 b 390 0 408 3 399 0 "},"":{"ha":851,"x_min":0,"x_max":0,"o":"m 110 46 b 232 224 164 46 218 181 b 201 289 210 240 201 264 b 253 376 201 328 225 368 b 222 407 249 393 240 407 l 215 407 b 76 108 149 396 76 208 b 110 46 76 67 86 47 m 424 -258 b 319 -161 364 -258 319 -222 l 321 -146 b 529 -43 331 -58 442 -57 b 554 56 543 -12 554 25 b 508 117 554 86 543 111 b 497 129 500 118 497 124 b 510 144 497 136 503 143 b 640 313 568 154 617 235 b 658 404 649 344 658 376 b 596 464 658 439 643 464 b 300 200 492 463 436 200 l 293 200 b 100 3 261 114 194 3 b -24 163 13 3 -24 74 b 200 492 -24 306 72 492 b 235 488 211 492 224 490 b 321 344 300 471 321 410 b 303 229 321 304 313 261 b 594 490 419 229 464 485 l 614 492 b 757 381 713 492 757 454 b 604 133 757 304 713 168 b 665 39 642 118 665 86 b 660 0 665 28 663 14 b 851 296 736 47 781 140 b 864 303 854 301 858 303 b 878 290 871 303 878 297 b 876 283 878 289 878 286 b 650 -36 797 111 750 14 b 425 -258 621 -128 554 -256 m 385 -194 b 514 -72 428 -194 485 -151 b 349 -149 439 -83 357 -87 l 347 -157 b 385 -194 347 -183 364 -194 "},"":{"ha":1404,"x_min":0,"x_max":0,"o":""},"":{"ha":1358,"x_min":0,"x_max":0,"o":""},"":{"ha":1481,"x_min":0,"x_max":0,"o":""},"":{"ha":1461,"x_min":0,"x_max":0,"o":""},"":{"ha":826,"x_min":0,"x_max":0,"o":"m 643 -1 b 546 31 611 -1 563 0 b 536 88 539 46 536 65 b 631 440 536 192 604 367 b 561 432 611 438 585 432 b 542 435 554 432 547 432 b 469 292 529 401 503 344 b 335 189 433 240 389 197 b 186 24 313 121 250 40 b 163 19 178 21 171 19 b 89 97 118 19 89 56 b 122 175 89 122 99 150 b 218 210 146 199 182 206 b 247 360 232 250 247 311 l 244 389 b 228 411 242 403 238 411 l 225 411 b 101 229 183 408 114 271 b 49 14 82 175 49 69 b 33 -1 49 6 42 -1 l 19 -1 b -57 36 -14 -1 -50 6 l -58 53 b -12 260 -58 92 -39 171 b 129 669 35 421 106 617 b 164 686 133 681 147 686 b 246 643 199 686 246 665 l 244 638 b 171 439 235 613 204 535 b 258 490 194 468 224 490 l 263 490 b 358 343 338 490 358 417 b 342 219 358 296 350 250 b 446 308 382 229 417 267 b 517 447 481 358 504 417 b 500 488 504 457 500 472 b 514 546 500 507 507 529 b 547 560 518 556 532 560 b 581 543 564 560 581 554 l 581 539 l 560 478 b 657 490 596 479 628 490 b 733 428 693 490 728 463 l 735 417 b 707 322 735 396 724 365 b 642 67 685 260 642 135 l 644 43 b 660 25 647 31 653 25 b 713 68 678 25 704 58 b 825 294 738 107 772 176 b 838 303 828 300 833 303 b 853 289 846 303 853 297 b 851 282 853 288 853 285 b 735 53 797 165 763 94 b 658 -1 706 8 685 -1 m 132 88 b 168 114 140 88 153 96 b 206 179 179 128 193 149 b 140 151 183 175 154 167 b 119 107 126 138 119 119 b 132 88 119 96 124 88 "},"‘":{"ha":289,"x_min":0,"x_max":0,"o":""},"’":{"ha":342,"x_min":0,"x_max":0,"o":""},"‚":{"ha":269,"x_min":0,"x_max":0,"o":""},"“":{"ha":367,"x_min":0,"x_max":0,"o":""},"”":{"ha":397,"x_min":0,"x_max":0,"o":""},"„":{"ha":401,"x_min":0,"x_max":0,"o":""}}}
